<svg xmlns="http://www.w3.org/2000/svg" viewBox="0 0 171.55 119.42"><defs><style>.cls-1{fill:#f7ed3c;}</style></defs><g id="Capa_2" data-name="Capa 2"><g id="Capa_1-2" data-name="Capa 1"><path class="cls-1" d="M170.31,41.94a4.06,4.06,0,0,1-1.75,1.41c-.93.31-1.67,1-3,1a10.15,10.15,0,0,1-3.5-.7c-.55-.16-.86-.7-1.71-.7.12-.08.23-.2.35-.2a5.3,5.3,0,0,1,.19-1.17c-.62-.15-1.28.24-1.67-.15a7.66,7.66,0,0,0,2-.35.36.36,0,0,1-.16-.31c-.46,0-1.9-.43-2-.86a.92.92,0,0,1,.78.08v-.31c.31,0,.39-.43.7-.43h.31c0,.24.19.35.23.59s.32.78.59.78.5-.2.7-.24c-.08-.27-.12-.35,0-.5.15.15.27.35.5.35l.94-.24a1.75,1.75,0,0,1,.54.28,1.27,1.27,0,0,1,0-.39c.58,0,.89.11,1.24.11.51,0,1-.46,1.33-.11a1,1,0,0,1,.15-.58c.27.07.27.11.43,0,0,.46.31.5.7.5s.58-.2.93-.2a.52.52,0,0,0-.23.35c0,1.13,1.44.86,1.44,1.95Z"/><path class="cls-1" d="M103.25,104.57c-.27.47-1,.47-1.48.47-.89,0-1.51-.27-2.25-.27v-.24a.41.41,0,0,0,.39-.35c-.59-.27-1.21-.23-1.32-.82-.32,0-.27-.27-.43-.34-.31-.16-.51,0-.82,0-.54,0-.81-.59-1.36-.59H94.86c-.24-.15-.2-.31-.08-.42-.16-.16-.35-.12-.55-.12a3.89,3.89,0,0,0-2.18.93H91.7a3.25,3.25,0,0,1,3.19-1.71c1.71,0,2.53,1,3.81,1,.27,0,.59.39.67.47a3.65,3.65,0,0,0,2.4,1,.82.82,0,0,0,0,.27l.59,0C102.78,103.91,103,104.45,103.25,104.57Z"/><path class="cls-1" d="M93.84,102.59a1,1,0,0,1,0,.58s-.54.08-.54,0a.34.34,0,0,1,.35-.35v-.27h.08Z"/><path class="cls-1" d="M100.65,106.71a.46.46,0,0,1,.35.35,7.28,7.28,0,0,1-1.29.23.63.63,0,0,1-.62-.58c0-.16.23-.23.39-.23a4.12,4.12,0,0,1,1.25.31Z"/><path class="cls-1" d="M108.89,105.74a4.44,4.44,0,0,1,1,.85H108.5c-.27.16-.43.31-.7.31s-.2-.19-.39-.19c-.5,0-.46.7-.89.7s-.28-.39-.47-.51a4.36,4.36,0,0,0-1.75-.11c-.27,0-.27.11-.47,0,0,.11,0,.19,0,.31a.72.72,0,0,1-.47-.62c.08,0,.15-.12.19-.16.9,0,1.29.19,1.75,0a1,1,0,0,1-.27-.81.52.52,0,0,1-.51-.43c0-.12.2-.27.32-.27.35,0,.58.27.93.27.5,0,.74-.16,1.17-.16,1.24,0,1.47.66,2.17,1Z"/><path class="cls-1" d="M98.9,98.93a.49.49,0,0,1,.42.55.23.23,0,0,1-.19.19c-.39,0-.39-.42-.39-.74C98.74,98.9,98.86,98.93,98.9,98.93Z"/><path class="cls-1" d="M98.16,97a.7.7,0,0,1,.54-.31.55.55,0,0,1,.47.31A8.39,8.39,0,0,1,98.16,97Z"/><path class="cls-1" d="M100.1,97.5c-.11,0-.23-.2-.19-.32Z"/><path class="cls-1" d="M72,33.24c-.32,0-.51.11-.51.39s.43.31.58.31a.75.75,0,0,0,.39.54c-.35.74-1.24.7-2.21.7-1.52,0-2.06-1.16-3.19-1.16-.7,0-.43.42-1,.69-1,.51-2,.2-2.8.78h-3.5c-.66,0-.23-.62-.7-1s-1.59-.19-2.14-.19c-.85,0-1.55-.9-1.83-1.36a6,6,0,0,1,3.78-.9A11.68,11.68,0,0,0,60.18,32a2,2,0,0,0-1-.38H57.15c-.86,0-3,.38-3-.71,0-.85,1.13-.54,1.56-.81a4,4,0,0,0-1.36,0,1.68,1.68,0,0,1-1.17-.78c0-1.9,3.54-3.3,4.94-3.3.54,0,.5,1.13.66,1.36.31-.19.58-.7,1.2-.7a1.61,1.61,0,0,1,1.75,1.17c.43-.08.74-.16,1.17-.28a2.56,2.56,0,0,0-.2-.7h.86a2.29,2.29,0,0,1,1.28,1.09c.24.47,0,1.44.67,1.44.31,0,.31-.16.5-.31a11,11,0,0,1-.9-2.68c0-.32.4-.51.71-.51.69,0,.46.31,1.08,0a1.71,1.71,0,0,1,0-.39c0-.39.54-.66,1.16-.66s1.36.27,1.36.86-.85.93-.85,1.28c0,1.4,1,2.29,1,3.3,0,1.25,3.26,2.1,4,2.69C72.89,33.39,72.73,33.24,72,33.24Z"/><path class="cls-1" d="M48.13,30.24c-.2,0-.47-.58-.59-.77-.31-.43-1.86-.31-1.86-.78,0-1.32,1.94-2.41,1.94-3.81,0-.31-.54-.93-.58-1.36,1-.39,1.4,0,2.33,0,.47,0,.86-.47,1.56-.27s1.24.7,2.1.77c.35.36.81-.11,1.32-.11.81,0,2.72.77,2.72,1.67,0,.43-2.06.74-2.45.86-1.21.38-2.92,2-2.92,2.91,0,.31-2.68,1.28-3,1.28S48.32,30.24,48.13,30.24Z"/><path class="cls-1" d="M59.4,23.52c-.46,0-1.09-.35-1.09-.58,0-.59.59-.47,1.09-.47-.23-.31-.58-.51-.66-.9a.54.54,0,0,0-.43.51c-.66.08-1.16.27-1.63.27s-1.09-.27-1.36-.27a.59.59,0,0,1-.58-.58c0-.39.15-.31,0-.59.38-.07.58-.38,1-.38.78,0,1.16.35,1.75.38a6.55,6.55,0,0,1-1.75-.5v-.58a3.19,3.19,0,0,1,.66,0c.15,0,1.36.23,1.75.27a5.78,5.78,0,0,1-1.94-.43,1,1,0,0,1,.77-.43c.51,0,.62.16,1,.12-.47,0-1.17,0-1.17-.51a4.78,4.78,0,0,1,1.28,0,.68.68,0,0,1,.66.59h.89c1.17,0,2,1.47,3.7,1.47.5,0,.7-.15.85-.5a1.6,1.6,0,0,1-.77-.12c0-.08.27-.15.38-.15v-.51c-.27,0-1-.23-1-.58,0-.62,1-.94,1.4-1.24a1.4,1.4,0,0,0,.74.27,1.84,1.84,0,0,0,0,.5A1.7,1.7,0,0,0,66.4,20c.35,0,.54-.46,1-.46a1,1,0,0,1,.89,1,3.19,3.19,0,0,1-1.28,1.82c-.24.08-2.53-.19-2.53-.08s-2.49.63-2.6.67A6.57,6.57,0,0,1,59.4,23.52Z"/><path class="cls-1" d="M53.46,21.19c-.32,0-.67-.2-.67-.47,0-.62,1.44-.93,1.83-.89C54.54,20.37,54,21.19,53.46,21.19Z"/><path class="cls-1" d="M58.24,18.39a.51.51,0,0,1-.51-.51h1.36v.51Z"/><path class="cls-1" d="M56.68,16.79a.68.68,0,0,1-.5.62c0,.4.31.47.31.78l-1.67,1.25c-.67,0-.63-.9-1-1.09a1.32,1.32,0,0,1-1.32,1.21c-.08.42-.39.85-.82.85s-.58-.43-.66-.58c-.46.23-.7,0-1.08,0s-.36.27-.67.31c-.07-.28-.39-.47-.39-.58a4.06,4.06,0,0,1,.86-.71c.62-.31,1.21-.39,1.87-.77s.93-1.44,2-1.44a4.7,4.7,0,0,1,.7.08S56.68,16.1,56.68,16.79Z"/><path class="cls-1" d="M61,14.7c-.46,0-.58-.32-1-.32s-.47.27-.78.32c0-.51,2.34-1.37,2.84-1.37a1.67,1.67,0,0,1,1.63,1,2.12,2.12,0,0,1-1,.39Z"/><path class="cls-1" d="M62.7,15.75c.08.81-1.2,1.16-2.05,1.16a1.48,1.48,0,0,1-1.25-1.05c0-.9,2.37-1,3.19-1a.77.77,0,0,1,.7.39,2.73,2.73,0,0,1-1.67.47Z"/><path class="cls-1" d="M58.86,15.67c-.16.23-.28.46-.55.46s-.77-.38-.77-.58C57.54,14.58,58.62,15.55,58.86,15.67Z"/><path class="cls-1" d="M77.75,26.75c0,.54-.11.19-.11.58.15,0,.65.12.89.19-.19,2.12-.31,1.55-1.56,2-.35.12-.43.59-.78.59-.54,0-.62-.43-.85-.66-1.09-1.09-2.29-.94-3.42-2.06v-.66c.5,0,1.09.46,1.75.46h.58V26.16c-.5-.07-1.24,0-1.24-.5,0-.12.23-.2.27-.32.62-.62,1.48-.46,2.33-.46h1.56c.11,0,.38.19.38.39,0,.77-1,1.09-1.24,1.44C76.62,26.67,77.75,26.32,77.75,26.75Z"/><path class="cls-1" d="M69.9,19.24a1.13,1.13,0,0,1-.39-.78H70c1.12,0,1.7,2,2.91,1.64a3.89,3.89,0,0,1-.78-.66V19c.86,0,1.17.86,2.14.86V19c-.66,0-1.2,0-1.36-.54.27-.12.43,0,.7,0,.62,0,1,.39,1.75.39.31,0,.47-.32.78-.32.7,0,.78.39.78,1,0,.89-.47,1.36-.32,2.45a5.87,5.87,0,0,1-1.55.19c-.23,0-1.25.16-1.25-.19a.45.45,0,0,1,.28-.39.65.65,0,0,1,0-.39c0-.35.74-.35,1-.58a.91.91,0,0,0-.47-.12c-.7,0-2.06.39-2.84.39a.47.47,0,0,1-.46-.47h-.58l-.12-.39c-.39.12-.66-.15-1-.38v-.71Z"/><path class="cls-1" d="M78.53,35.76a15.81,15.81,0,0,1-3.39-1.16c0-.31.7-.16.86-.19.47-.16.31-1.25,1.09-1.25a5.19,5.19,0,0,1,2.41,2C79.11,35.37,79,35.76,78.53,35.76Z"/><path class="cls-1" d="M85.06,25a4.57,4.57,0,0,1-.7.59c-.51.7-1,1.56-2.22,1.56-.85,0-.85-.51-1.09.27h.51c-.12.7-.43.82-.89,1.28h-.78a8.69,8.69,0,0,1,0-1.17c-.62-.62-.35-1.08-.62-1.86V25h.89c-.08,0,0-.27,0-.38a1,1,0,0,1,1-.59c1.32,0,2.41.47,3.81.47A2.09,2.09,0,0,0,85.06,25Z"/><path class="cls-1" d="M69.55,16.83a.56.56,0,0,1-.55.47c-.42,0-1.36-1.05-1.36-1.55C68.65,15.75,68.73,16.56,69.55,16.83Z"/><path class="cls-1" d="M69.9,21c.08.2.27.31.27.58,0,.47-.35.51-.58.51a5.64,5.64,0,0,0-.78,0C69,21.38,69.35,21.19,69.9,21Z"/><path class="cls-1" d="M72.89,14.7a14.13,14.13,0,0,0-1.83-.16c-.19-.35-.69-.16-1.28-.16s-.7,0-1-.31c.35-.35.7-.31,1.17-.46a.49.49,0,0,1,0-.47c-.86,0-1.05.23-1.36,0a.75.75,0,0,0,.27-.39c-.55,0-.66-.12-.66-.58a7,7,0,0,1,1.24-.31c.82,0,1,.7,1.48.7.31,0,.47-.32.78-.32.77,0,.74.9,1.16.9.24,0,.35-.31.59-.31.54,0,1,.7,1.16.89-.08.12-.23.28-.31.39.31.31,1.09.62,1.09,1.05s-.39.51-.7.51C73.71,15.67,73.78,14.7,72.89,14.7Z"/><path class="cls-1" d="M71.68,15.75c-.69,0,.2-.59.36-.59.42,0,.54.2.89.31C72.73,15.75,72.27,15.75,71.68,15.75Z"/><path class="cls-1" d="M97,21.38a1,1,0,0,0-.39.54,1.26,1.26,0,0,0,.51,0c-.12,1.37-1.87,1.37-3.23,1.37a.76.76,0,0,1-.78-.59c-.54.08-.62.27-1,.51H89c-.81.19-2,.08-1.94-.59h-.47a2,2,0,0,1-1.08.67c-.86,0-2.8-1-2.8-1.76,0-.27.31-.54.46-.62-.7-.69-.89-1.32-1.55-2a1.11,1.11,0,0,1-.78.39c-.43,0-2.8-1-2.8-1.36,0-.59.7-.59,1.16-.59,1.76,0,2.07,1.37,3.39,1.37a.82.82,0,0,0,.78-.32h.7c-.32.9,1.47.67,1.82,1.17H84.36c.23,1.05,1.2.47,1.75.9-.08.08-.27.08-.27.19,0,.54.46.31.62.19a10.19,10.19,0,0,0,2.68.47c2.14,0,2.84-1,4.86-1,1.55,0,2.56.08,3.11,1.09a1.13,1.13,0,0,1-.39.07Z"/><path class="cls-1" d="M78.84,21.5c.43,0,.27-.89,1.16-.89.7,0,1.64.77,1.64,1.28s-.24,1.24-.78,1.24a24.07,24.07,0,0,1-2.53-1.05A.66.66,0,0,1,78.84,21.5Z"/><path class="cls-1" d="M81.25,15.75c.42,0,.11.07.5,0v.5c0,.19-.23.39-.58.39-.19,0-2.45-.43-2.45-.43A5,5,0,0,1,81.25,15.75Z"/><path class="cls-1" d="M77.28,15.28c0-.2.27-.35.39-.39-.46-.47-1.28-.7-1.28-1.48,0-.39.51-.54.89-.58.12.31.94.58,1.36.58,0,.94,1.36.08,1.36.9a2.83,2.83,0,0,0,0,1C78.64,15.59,77.28,15.75,77.28,15.28Z"/><path class="cls-1" d="M76.39,10.22V11h-.66c-.24-.23-.7-.31-.7-.78C75.53,10.19,76.12,10.22,76.39,10.22Z"/><path class="cls-1" d="M87,10h.47V9.52l-.2-.27h.39c.55,0,.51.2.51.66,0,.28.46.31.46.59s-.27.35-.27.58.59,0,.66,0c.39,0,1.4.47,1.91.5,0,.28.08.43,0,.59s-.58.15-.9.19c-.77.08-1.31,1.25-1.82,1.25s-.51-.35-.62-.78c-.2.19-.28.39-.47.58.23.39.39.47.5.78h-.7v.51c-.35,0-1-.47-1.4-.7,0,.7-.34.89-.93.89s-1.47-.16-1.55-.7a.75.75,0,0,0,.5-.27c-.66,0-1.75-.39-1.75-1,0-.74,2.41-.66,3-.77a5.66,5.66,0,0,0-1.6-.31c-.58,0-.7.31-1.16.31s-.43-.27-.55-.51c-.38.16-.5.31-.81.31s-.31-.15-.31-.39c.39-.15.66-.19.89-.5-1.32,0-2.14-.12-2.25-1.24h.58a2.65,2.65,0,0,0,1.17.38c.15,0,.35-.31.35-.31-.51-.15-1.71-.43-1.71-.85s.54-.39.89-.39c.54,0,.74.27,1,.27s.31-.27.42-.39c-.38-.23-.85,0-1.08,0s-.51-.58-.51-.62a1.75,1.75,0,0,1,1.48-.35h.66c-.47-.23-1.13-.27-1.17-.81a8.43,8.43,0,0,1,2.45.42c.78.31.62,1.44,1.25,1.67s1-.15,1.55.08S86.65,9.68,87,10Z"/><path class="cls-1" d="M89.22,44.05c.19-.16.39-.28.39-.51V43c0-.67.19-2.22,1.28-2.34a5.36,5.36,0,0,0,.58,1.09,1.22,1.22,0,0,1,.35-.31c.82,1,2.06.62,2.76,1.56.2.27.08.54.28.7.62.46,1.32.27,1.67.74a2.23,2.23,0,0,1-1.29.42h-1a17.1,17.1,0,0,0-1.47-1c0,.85-1.29,1.67-1.83,1.44-.12.19-.12.31-.31.31-.47,0-.35-.39-.27-.78a4.89,4.89,0,0,0-1.68,0C88.68,44.16,89.14,44.24,89.22,44.05Z"/><path class="cls-1" d="M102.24,37.24c0,.51-1,.86-1.44.86a.9.9,0,0,1-1-.86C99.83,35.69,102.24,36,102.24,37.24Z"/><path class="cls-1" d="M93.49,45.87c.78,0,.63,0,1.09.16a4,4,0,0,1-1.94,1.32v-.51C93,46.45,93.45,46.1,93.49,45.87Z"/><path class="cls-1" d="M97.69,27.14c-.78,0-1.44-.2-1.16-.86-.35-.19-.78-.39-.78-.82a.61.61,0,0,1,.66-.58c.86,0,1.13.31,1.94.31,1.05,0,2,.85,2.65,1.21a.78.78,0,0,1-.7.62c-.51,0-.74-.27-1.17-.27S98.35,27.14,97.69,27.14Z"/><path class="cls-1" d="M97.5,47.27c-.23.31-.32.86-.7.86-.08,0-.58-.59-.58-.59C96.22,46.84,97.11,46.8,97.5,47.27Z"/><path class="cls-1" d="M103.13,37.05c-.27,0-.5-.08-.5-.31s.43-.39.5-.39c.35,0,.67.46.78.62A1.89,1.89,0,0,1,103.13,37.05Z"/><path class="cls-1" d="M97.58,35c-.47,0,.42-.9.89-.9C98.35,34.56,98,35,97.58,35Z"/><path class="cls-1" d="M115.38,41c0,.43-.08,1.09-.51,1.09-1.94,0-2-2.64-3.88-2.64-.24,0-.74.42-.78.42A.79.79,0,0,0,111,40v.47c-.24.08-.43.12-.58,0V41h.5a2.48,2.48,0,0,0,.86,1.48c.73.27,1-.2,1.08.47h.66a2.62,2.62,0,0,0,0,.77c0,.28.7.47.7.9a6.91,6.91,0,0,1-.58,1.55A9.75,9.75,0,0,1,110,44.63h-.59c.66.81,2.84,1.63,2.84,2.72a.47.47,0,0,1-.39.47c-.19,0-.27-.43-.39-.47-1.12-.55-1.86-.31-2.83-.9s-3.27-.5-2.61-1.75a23.75,23.75,0,0,1-3-1.94c-.2.27-.43.59-.78.59s-.31-.28-.66-.28-.7.59-1.17.59-1.67-.55-1.67-1.09,1-1,1.56-1H102a4.19,4.19,0,0,0,1.75-.55c-.2-.12-.7-.5-.7-.81,0-.66.7-.31,1-.59s1.17-1.2,1.17-1.75c0-1-2.49-2.91-3.31-2.91-.5,0-.74.46-1.24.46-.16,0-.31-.38-.31-.46,0-.39.7-.47.93-.5-.35-.35-2.45-2.15-2.88-2.15s-1.13,1.48-1.82,1.48c-.51,0-.35-.62-.31-.89-1.21-.12-4.17,0-5.91,0a2.19,2.19,0,0,1-1.17-.78H87.27c-.19-.54-.77-.62-.85-1.17a4.15,4.15,0,0,1,1.75.12v-.5A9,9,0,0,0,86,30.13s-.58-.7-.58-1.06c0-1.08.19-1.31.78-1.74.3-.23.11-.93.27-1.09a4.32,4.32,0,0,1,3.11-1.44s1.24.39,1.28.39c-.39.82-1.67.9-1.67,2,0,.24.11.39.31.39a1.89,1.89,0,0,0,0,.7c0,.31-.08.66.39.66.23,0,.77-.47.77-.78s-.38-.66-.38-1c0-1.48,2.6-1.95,4.16-1.95,1,0,1.55,1.36,1.55,2.22,0,.15-.19.77,0,.77s.39-.38.78-.38.54.38.89.38c.66,0,.86-1,1.56-1a7.58,7.58,0,0,1,2.91.59c.86.62,1.13,1.94,2.41,1.94h1c.42,0,1.4.12,1.28.78,1,.35,1.63,1,2.72,1.09v.65h.66c.54,0,.86.39,1.09.94-.55.11-1,.08-1.36.54a7.4,7.4,0,0,0,1.16.08.7.7,0,0,1,.59.35c-.62.31-.94.31-1.28.89a1.82,1.82,0,0,0,1.08.31c.08.9,1.13,1.29,2,1.37.07.7.27,1.36.85,1.36.86,0,1-.55,1.36.19a1,1,0,0,0,.7.2c.74,0,1.05.27,1.05.89s-.66.66-1.17.66a1.55,1.55,0,0,1,0,.51C116.23,40.66,116.12,41,115.38,41Z"/><path class="cls-1" d="M99.44,45.17c-.39.31-.5.31-.89,0C98.94,44.67,99,44.94,99.44,45.17Z"/><path class="cls-1" d="M92.05,40.43c.51-.23.51.27.78.62C92.33,41,92,40.7,92.05,40.43Z"/><path class="cls-1" d="M111.3,2.6a1.21,1.21,0,0,1-.7.43l3.11-.89a3.06,3.06,0,0,0,.7.31c.43.12.43.43.66.66.47.47,2.53.27,2.53,1,0,.51-.7.39-1,.59-1.55,1.16-3.46.46-5.52,1.47.39.39,2,.08,2.92.12-.89.9-3.07,1.44-4.47,1.9-1.56.51-2.45,2.06-3.62,2.92-.54.39-1.4-.08-2,.12a7.79,7.79,0,0,0-2.45.85h1.09c.08.86-.39.78-1.13.7.47.23.9.39,1.13.93-.81.39-1.09,1.33-1.75,1.79H98.86c.08.28.27.35.27.59,0,1.24-1.63.5-1.63,1.82h1c.12,0,.58,0,.58.31,0,.66-2.21,1.37-3.11,1.37s-.5-.59-1.28-.59H91.74c-.35,0-.58.39-1.16.39a11.85,11.85,0,0,1-3.7-.78c-.11.2-.27.39-.46.39a.36.36,0,0,1-.39-.31c0-1.56,2-1,2.84-1.56-.47-.35-1.29-.46-1.29-1.16,0-.55.59-.39,1-.39,1.24,0,1.67.66,2.41,1.09h.7c-.55-.54-1.75-1-1.75-1.94h-.59A.91.91,0,0,0,89,15h-.59V14.5c.32-.66.59-1.09,1.17-1.28,1-.31,2.14,0,2.14-1.05,0-1.25-2.65-1.25-2.65-1.95,0-.38.59-.31,1-.31-.42,0-.5-.15-.58-.46a1.42,1.42,0,0,1,.58,0,6.43,6.43,0,0,1,2.06.07c1,.32,1.33,1.44,2.42,1.33-.2-.2-1.44-1-1.44-1.21s.19-.27.27-.39h1.94a4.2,4.2,0,0,0,1.87-1.09h-.58a4.33,4.33,0,0,1-2.92.9c-.74,0-1-.31-1.36-.31s-.47.38-.78.38c-.78,0-1.79-.27-1.55-.77h-.51a1.45,1.45,0,0,1-.85.39,3.49,3.49,0,0,1-2.14-.82,1.82,1.82,0,0,1,1-.43c-.74,0-1.52,0-1.83,0,.43-1,1.4-.89,2.41-1.2a2.72,2.72,0,0,0-.78-.08c-.77,0-.81.7-1.55.7a2.41,2.41,0,0,1-.7-.31A2.24,2.24,0,0,1,86.11,6H84.94a2.26,2.26,0,0,0-.58.27H83.5c.23-1,2.77-1.44,3.89-1.44h.86a.34.34,0,0,0,.31-.31c1.24,0,.73-.85,1.55-.85a11.09,11.09,0,0,1,2.61.85c.34-.93.81-1.75,1.94-1.75.66,0,.27.35.78-.08a.89.89,0,0,1,.89-.5h4.47a.53.53,0,0,1,.47-.27c.7,0,.89.46,1.47.46s.7-.66,1.25-.66.82.27,1.17.27h1.08C107.17,1.94,110.52,1.83,111.3,2.6Z"/><path class="cls-1" d="M127.31,35.49c.55-.27.55-.31,1.09-.08.23-1.16.82-1.55,1.17-2.64-1.21-.39-4-.58-4.2-1.67.39-.15.35,0,.7,0,.82,0,1.4.58,2.33.58.39,0,.35-.35.39-.58-1.21-.39-1.55-2.22-2.84-2.22-.34,0-.46.66-1,.66-.7,0-1-.07-1-.66,0-.85.86-.77.86-1.67,0-.58-.62-.62-1-.66V26c-1.08-3.34-3.8-6.73-8.16-6.73h-1.16c-.51,0-.74.51-1.25.51-.35,0-.7-.31-1.17-.31a1.77,1.77,0,0,0-.77.15,1.21,1.21,0,0,0,.39.31c-.24.24-.2.12-.51.12a3.74,3.74,0,0,1-2.52-.93c.34-.24.62-.28.77-.63-.62-.23-1.09-.65-1.55-.65-.86,0-.62.27-1.36,0,.08-.55.85-.78,1.16-.78h1c.39,0,.5,0,.69-.31h2.22c.39-.28.39-.43.5-.86h-1.55c-.08.2-.19.39-.39.39h-1.36c-.16,0-3.89-1.05-3.89-1.67,0-1.21,1.36-.78,2.22-1.05.7-.23,1.13-.66,1.87-.9,1-.35,2.44.24,3.3-.27a2.31,2.31,0,0,0,1-2.06c-.7-.08-2.91,0-2.91-.78,0-.34.58-.54.77-.58A11.46,11.46,0,0,0,115,6.8a1.52,1.52,0,0,0,1,.31c1.36,0,.31-1.78,1.56-1.94a23.94,23.94,0,0,1,3.61-.58c1.09-.27,1.87-.9,2.92-.9.7,0,.89,1.17,1.63,1.17,0-.27-.2-.5-.2-.78l.39-.39c.43.74,1.09.67,1.87,1h.58a2.71,2.71,0,0,1-.31-.86c0-.47.59-.5,1-.5,1.6,0,2.53.89,3.5,1.36h1.75c-.62-.31-2.22-.82-2.22-1.56,0-.58,1.21-.39,1.56-.47-.27-.27-.58-.31-.78-.58a7.12,7.12,0,0,1,3.31-.78,6.26,6.26,0,0,1,2.41.27h.77V1.09a10.15,10.15,0,0,1,1.56,0c1.87,0,3.38-1.09,5.36-1.09h5.64c2.29,0,4,1.48,5.83,2.26,1.05.42,2.41.15,3.38.38-.19,1.37-2.83,1.17-3.88,1.56l-8.54.47c.66.5,7.18-.27,7.87,0-.07.3-1.77,1.94-1.46,1.94,1,0,3.29-2.21,4.58-2.21.69,0,1,.57,1,1.16,0,.35-2.51,3-2.63,3.38,1-.27,3-2.84,3.6-3.3h2.6a4.57,4.57,0,0,0,.9.11A10.9,10.9,0,0,0,166.58,5h1.86c.12-.46.39-.5.78-.5s2.33.86,2.33,1.36-.74.82-1,.9c-1.28.43-2.1,1.55-3.85,1.55.47.23.51.23.82,0,0,1.09-1.05,1.09-1.75,1.24.27.55,0,.12,0,.51,0,.62-1,.78-1.75,1a2.45,2.45,0,0,1,0,.58c0,.82-.82,1.09-1.55,1.64-.47.35-.43,1.28-.67,1.67.43.19.74,0,1.17,0a2.69,2.69,0,0,1,1.56.74,1.49,1.49,0,0,1-.7.23c.15.62,1.67.43,1.67,1.36s-2,.59-2.72.59c-.43,0-.78.3-.78.58,0,.66.7.66,1.24.66,0,.85.59,1.09.59,1.67,0,.31-.2.62,0,.85-.63,0-1.25,0-1.25.51,0,.66,1.09.62,1.56.78a2.06,2.06,0,0,1-1.75,1.05.64.64,0,0,0,.39.58c-.27,1.17-1.83.66-2.14,1.48a3.67,3.67,0,0,1-1.17-.9h-.58c.39,1.05,2.14.7,2.14,1.75,0,.47-.12,1.09-.58,1.09a3.07,3.07,0,0,1-2.14-1.75,1.93,1.93,0,0,1-.51,0v.59c1.4,1.4,3.89,2.05,3.89,4.27,0,.43-.63.47-1.05.47-1.83,0-1.44-1.95-3-1.95-.19,0-.38.12-.58,0,0,.55.39.67.39,1s-.66.46-.86.5c0,1.17,3.47,1,4.28,1.28a4.2,4.2,0,0,1-1.67.74c-1.28.43-1.67,1.52-2.8,1.87-1.4.46-2.53.35-4,1h-1.83c-.39.23-.78.35-.78.66l-1,.7c-.74.58-.78,1.36-1.36,1.94-.78.78-2.1.59-2.92,1.17H144v-.78c-.58.24-.42.63-.78,1-.81.81-2.91.46-2.91,1.74,0,.12.08.28.08.39s-.28.28-.28.47.47.47.47.9c0,1.32-1.83.89-1.83,2,0,.7-.07,1.71,0,2.14-.89.42-.42,2.44-1.47,2.44-.27,0-.39-.15-.47-.39-.47,0-.54.28-.78.28-1,0-.89-1.76-1.86-1.76-.55,0-1.17.47-1.63.51-.28-.89-.67-.62-1.29-1.08-.23-.16-.15-.71-.27-.78-.78-.63-2.25-2.38-2.25-3.5,0-.51.31-.47.58-.74-.58-.74-.78.23-1.44-.12a5.45,5.45,0,0,1-.39-1.28c-.23-.74-1.28-1.17-1.28-2.22,0-.39.27-.58.39-1a.66.66,0,0,0-.78,0v-.89a9.11,9.11,0,0,1,1.55-2.14Z"/><path class="cls-1" d="M125.49,34c-.35,0-.78-.9-.78-1.37a.79.79,0,0,1,.85-.77c1,0,1.33,1.05,2.34,1.36-.08.66-.9.78-1.56.78Z"/><path class="cls-1" d="M164.94,22.08c-.27,0-.5-.39-.5-.58s.27-.39.39-.51h.7v.51h.66A3.54,3.54,0,0,1,164.94,22.08Z"/><path class="cls-1" d="M120.32,69.93c-.2,0-.39-.27-.39-.38s.7-.7.7-.74v-.24a.35.35,0,0,1-.31-.19c1.08-.54,1.51-2.29,2.1-3.19.31-.5.54-1.16,1.16-1.16.16,0,.27.23.27.38,0,.86-.81,1.29-1,2v.35c.31-.08.31-.32.58-.32a.85.85,0,0,1,.62.2l-.2.19v.35h.71v.2l.46-.16a1.78,1.78,0,0,0,1.13,0c0,.35,0,.7,0,1.28a.76.76,0,0,1,.43-.11c0,.35-.39.43-.39.58s.27.35.27.62c.39,0,.27-.07.51-.23,0,.47.27.43.27.82s-.23.93-.62.93-.35-.31-.35-.47c-.12,0-.2-.07-.31-.07-.32,0-.08-.74-.39-1-.31.46-.66,1-1.13,1-.08,0-.23.07-.23,0,0-.39.31-.39.42-.63-.38,0-.89.24-1.09-.15a2,2,0,0,1-.77.19c-.51,0-.74-.27-1.17-.27S120.78,69.93,120.32,69.93Z"/><path class="cls-1" d="M94.7,61.81c.66,0,1.32.12,1.32.66,0,0-.15,0-.19,0a1.84,1.84,0,0,1-1.13-.39A.32.32,0,0,0,94.7,61.81Z"/><path class="cls-1" d="M123.15,61c-.31,0,.14-.38-.31-.58V60a10.11,10.11,0,0,1-3.69,1.17c-.12,0-.35-.08-.38-.16.77-.42,2.93-.72,3.16-1.46,0-.19-.29-.25-.33-.44-.93.11-2.92-.31-2.92-1.63v-.12a2.94,2.94,0,0,1-1.86-.93c.19-.12.58-.24.58-.7s-.35-.7-.27-1.09c-.35-.12-1.61-.92-1.28-1.63.4-.89-1.25-1.09-1.36-2.14-.12,0-.51-.35-.67-.51-.27.2-.89.55-.89,1.09a3,3,0,0,1-2.22,2c-.69,0-.81-.85-1.28-.85-.66,0-.93-1.91-1.05-2.72-.15-1.1-2.25-.32-2.25-1.75-1.09-.16-1.32-1.48-2.41-1.48-.51,0-.51.39-1.09.39-1.13,0-1.83-.66-2.92-.66-.58,0-1.16.27-1.16,1,0,.39,1.37.95.11,1.75-.49.31.71,1.17.78,1.75.14,1.15-1,1.44-1.47,1.63.9,1.52,2.25,2,2.25,4.59,0,.7-2.33,2.45-3.11,2.6,1.35.69.81,2.8,1.36,3.46-.15.24-.66.51-.7.93-.47,0-.8.76-1.17.47-1-.77-2.33-2-2.33-3.11s.23-2.22-.85-2.91H90.89a20.22,20.22,0,0,0-4.78-2.34c-.31-.11-1.21-.77-1.75-.77s-.86.58-1.44.58c0-.93-.62-3.11-1.48-3.11-.39,0-.58.31-1,.39.16-.47,0-.63,0-1.75a4.3,4.3,0,0,1,1.36-3.38c.31-.31,1-1.83,1.28-2,.66-.23,1.83.16,1.83-.77,0-.59-1.49-.63-2-.94.35.11-.83-.68,2.33.29.82.25.32-.83.79-.83h.85c.94,0,1.44-1,2.07-1.44v-.58c-1.32-.31-2.65-.12-3.23-1.29h.7c.5.31,1,.9,1.75.9s1.75-.82,1.75-1.28c0-.16-.59-.86-.28-.86.86,0,1.17.78,1.71.78.35,0,.59-.31,1.29-.31-.19-.24,0-.93.46-.2.26.39,2.26-1.32,2.26-1.83,0-.34-.89-.73-.89-1s-.53-.89.7-1.48c.15-.35,0-.31,0-1-1.25,0-.94-1-2.53-1-.35,0-.62-.27-1-.27s-1,.31-1,.78.59.7.59,1.05-.9.38-1.09.77c-.31.66-.21,1.18-.77,1.9-.87,1.12-2-.69-2-1.12s.66-.39.66-1a3.27,3.27,0,0,0-1.44-1.36c-1.13,0-.34,1.67-1.55,1.67a1.37,1.37,0,0,0-.9-1.51,1.58,1.58,0,0,1,.39-.47c-.62-.39-1.47,0-1.94-.59.27-.15,1-.42,1-.93,0-.74-1.15-.71-1.17-1.28,0-1.21-.89-2-2.41-2-.74,0-.42.47-.38.86-.47.12-1.09,0-1.09.59,0,.38.31.58.31,1s-.51.35-.51.89c0,1.29,2.65.51,2.65,1.83a8,8,0,0,1-.31,1.16c.27-.15.5-.23.81-.38.51,1.59-2.06.81-2.06,2.72-1.27.34-.27-.93-.58-1.36a3.47,3.47,0,0,0-1.75-.47c-.7,0-1,.43-1,1.25-.66-.08-1.09,0-3.31,0s-4.55-.74-5-2.33c-.7.19-3,.22-3,1.08,0,.27.18.42.49.42a4.76,4.76,0,0,0,2.11-.61c.16,1.28-1.82.23-1.82,1.55,0,.27.42,1.17.23,1.17-.78,0-.94-1-1.6-1.28l-.58-.28H61.07c-.77,0-1.28.32-2.13.35-1.54.08-1.54-.49-1.54-.61,0-.35,1.18-.2,1.42-.44-1.08-1.5-.89-1.26-3.11-1.09s-3.54-1.75-5.91-1.75c-.74,0-1,.51-1.67.51-.43,0-.86-.74-.94-1-.74.16-.74,1-1.51,1S43.89,32,43.66,32c-.78,0-.51,1.13-1.33,1.13a.79.79,0,0,1-.7-.54,15.31,15.31,0,0,0-2.72.77c-.42.08-1.44.83-1.78.51-1-.95-.84.26-1.21.27-2.53.09-.78,1-1.13,1A8.54,8.54,0,0,1,30.48,34c-.07,0-.55-.39-.55-.51-.27.16-.07.08-.46,0v0c-1-.31-1.32-.78-2.45-.78-.7,0-1.13.27-1.83.27-1.2,0-3.61-.19-4.39-1h-3a7.21,7.21,0,0,1-1.17-.78H14.7c-.35-.12-.47-.23-.9-.39a1,1,0,0,1-1,.51,4.3,4.3,0,0,1,.35-.51c-.51-.15-.7-.58-1.21-.58-.66,0-1.05.85-1.67,1.09s-.89-.08-1.43.08a10.47,10.47,0,0,0-5,3.69H1.75c0,.12-.58,1.09-.58,1.09,0,.27,1.59.58,2.06.86s.85,1.4,1.16,1.55c1.13.54,2,.62,2.34,1.87a3.61,3.61,0,0,1-1.09,0c-.82,0-1.44.35-1.44-.9H3.5C2.57,40.27,1,40.78,0,41.36A1.16,1.16,0,0,0,1.17,42a1.39,1.39,0,0,0-.12.38c0,.35.47.51.51,1.09H3.62c.58-.11.85.27,1.63.27s1-.66,1.67-.66a2.74,2.74,0,0,1,.58,0v.59c-.27-.16-.19-.2-.58,0,0,.11.66.65.66.93,0,.5-2.64,1.55-3,1.55-.82,0-2.92,1-2.92,2.14,0,.62,1.24.82,1.56,1.67-.2,0-.39.12-.59.12A8,8,0,0,0,5.25,51.9c.15,0,.47-.66.78-.66s.31.46.31.58v.78c0,.31.15,1,.39,1s.35-.31.58-.31h.47a1.5,1.5,0,0,1,0-.58,5.84,5.84,0,0,0,1.86,1.08,3.68,3.68,0,0,1,.27-.7,2.92,2.92,0,0,0,1.05.31c.59,0,.86-.27,1.44-.5H13c-.93.58-.93,1.75-1.82,2.33s-2.45,1.28-3.11,2.14c-.47.58-1.21.19-1.87.58-.43.24-.78,1-1.24,1.28-.66.39-1.4.08-1.87.82,1.63.47,2.41-1.16,3.81-1.4A6.34,6.34,0,0,0,10,57.46c.62-.63,1.94-1,2.53-1.75.31-.39.46-.78,1-1,.89-.34,1.75-.66,1.75-1.55V52.6c0-1.28,2.56-3.43,3.5-3.43h.46c0,.12,0,.28,0,.39-1.13.35-1.72,1-1.72,1.87,0,.2-.15.2.05.47-.08,0-.32.07-.32.31s.24.27.39.27A7.81,7.81,0,0,0,21.5,50.3a1.12,1.12,0,0,1-.39-.54c.35-.2,1.13-.39,1.59-.59.66,1.37,2.38,1.52,3.66,1.95H28.5c1.16.66,2.48.62,3.5,1.36.46.35,1,1.48,1.82,1.48.31,0,.47-.39.59-.7a1.48,1.48,0,0,0,1.16.58c.16-.27.51.08.7.27-.12.2-.39.35-.39.82,0,.23.43.58.59.58.5,0,.31-.46,1.05-.5v.5c0,.31-.59.35-.59.66s.16.59.7.59c.7,0,1.17,0,1.17.58v.58c0,.43,1,1.17,1.63,1.17.19,0,.19,0,.39,0,0,.19.23.31.23.54,0,.51-.15,1.56.39,1.72a1.62,1.62,0,0,1,.86.3c.34.36-.08.86.39,1.17a6.75,6.75,0,0,1,1,.74c.28.89.36,1.95,1.68,1.95.19.77,1.55.26,1.86,1.28.12.39,1.09.46,1.48.85a2.06,2.06,0,0,0,.43.24c.15.39.5.5.5.89a2.12,2.12,0,0,1-.54,1A1.24,1.24,0,0,0,48,69.12c-.15,0-.58,0-.58.27,0,.85,1,1.2,1,2.06,0,1.2-1,3.41-.66,4.35s0,2.41.39,3.27c-.24.15-.59.4-.39.74.66,1.15,1.51,2.87,2.33,3-.19,1.59.9,2.06,1.44,3.42.12.31,0,.74.31.86,1.4.54,3.38,1.36,4,2.52h-.08v.28a8.87,8.87,0,0,0,1,1.82c.23.47.2,1.55.67,1.85a7.91,7.91,0,0,1,1.89,2.09c.34.48-.58.34-.77.34.39.58,1.24.47,1.79,1,.39.39.7.82,1.12,1.24v1c.12.19.16.19.39.35.43.27.81,1.19,1.5,1.19a3,3,0,0,0,.64.83c.12,0,.27-.39.27-.59s-.46-1-.78-.66c-.7-.46-.93-1.47-1.24-2.41s-1-1.24-1.32-2.14A3,3,0,0,0,60,94.23c-.38-.39-.89-.39-1.17-1a4.35,4.35,0,0,1-.69-2,.8.8,0,0,1,.08-.51c.5.51,1.12.47,1.78.78.31.15.24,1,.59,1.36s.23,1,.58,1.36.82.86,1.32,1.36c.12-.12.08-.08.43,0,0,.93,1.2,1,1.55,1.71.2.43-.07.82.24,1.13s1,.54,1.4.93a9.91,9.91,0,0,1,2.64,3.38c.08.27.39.39.39.9s-.39.66-.39,1.09.23.77.58.77c.12.51,1.33.78,1.79,1.25a1.69,1.69,0,0,0,.43.27c.5.23.78.15,1.28.39s.66.74,1.21.89.7-.11,1.13.08a9.75,9.75,0,0,0,2.17,1.13,1.74,1.74,0,0,1,.9.08A1.84,1.84,0,0,0,79,110c.66,0,.78-.77,1.48-.77a1.56,1.56,0,0,1,.85.31h.24c1.05.5,1.2,1.4,2.41,2,.78.39,1.32.19,2.06.55.51.23.89.66,1.63.66.27,0,.47-.2.74-.2h.24c.23.93.89,1.28,1.51,1.91.19.19.39.27.5.66.2.58-.19,1.13.39,1.51h.39a.27.27,0,0,1,0-.34,7.65,7.65,0,0,1,1.48,1c.15.31.15.7.7.82,0,.08.12.23.19.23.28,0,.9-.23,1.17,0s.7,1,1.32,1c.31,0,.51-.19.58-.58-.07,0-.31-.2-.31-.35s1.09-1,1.36-1c.43,0,.55.5,1,.7-.08.15-.24.23-.24.39s.36.22.44.3.92-.83,1-.93c-.62-.46-1.1-1.24-2.19-1.24-.93,0-1.43.78-2.44.78-.67,0-.67-.74-1.09-.93-.62-.31-1.44-.66-1.44-1.52v-2.37a4.56,4.56,0,0,0,.27-1.71v-.59c-.7-.15-.93-.81-1.87-.81-1.36,0-2.4.23-3.69.23a.43.43,0,0,1-.46-.43v-.19c.23-.24.7-.39.7-.78v-1.87h.31v.28a2.14,2.14,0,0,0,.47-1.28c0-.74.65-1.44.65-2v-.35a5.76,5.76,0,0,1-.89-.08,2.11,2.11,0,0,0-.78-.11c-1,0-2.33.38-2.33,1.51,0,.59-.66,1.09-.82,1.56,0,.15-.23.62-.54.62-.16,0-.31-.23-.74-.23-.78,0-1.4.54-2.14.54-.31,0-.31-.35-.66-.47-1-.31-1-1-1.71-1.67a6.14,6.14,0,0,1-.93-1.13c-.15-.35,0-.58-.12-.93-.08-.15-.39-.46-.31-.77V99.83a6,6,0,0,0,.39-1.55,1.83,1.83,0,0,0-.16-.63l0-.09h.1c0-.11-.19-.27-.19-.39a2.56,2.56,0,0,1,1.36-2.52c.38-.16.74.12,1-.2S80.9,93,82,93c.42,0,.65.39,1.08.39.24,0,.35-.32.59-.32.77,0,1.71,1.32,2.8.78-.47-.31-.12-.66-.08-1.24-.23.11-.15.11-.55,0a18.06,18.06,0,0,1,2.1-.31c0,.11.16.31.28.31.31,0,.43-.31,1-.31.93,0,1.36.89,2.06.89.35,0,.5-.51.85-.51,1.71,0,1.25,2.38,1.87,3.62a9.25,9.25,0,0,0,1.17,1.44c.23.35.19,1,.77,1s.86-.74.86-1.56a4.82,4.82,0,0,0-.47-1.55v-.19c0-1.25-1.09-1.64-1.09-2.92,0-2.82,2.33-3.56,4.15-4.59l-.1-.08c.23-.23.19-.34.66-.5.31-.08.51-.38,1-.47.21,0,.34-.27.46-.43l-.46-.27v-.31c.35,0,.53,0,.6-.39a.65.65,0,0,1-.53-.34.51.51,0,0,0,.51-.47v-.39h-.27c-.23-.24,0-.2,0-.58s-.2-1.09-.2-1.37a1.42,1.42,0,0,1,0-.5c.08.39.43,1,.43,1.28v.43c0,.08.08.23.16.23a5.21,5.21,0,0,0,.89-1.59c0-.31-.27-.43-.35-.74l.2-.19c.07.07.15.31.27.31s1-1.36,1.08-1.67c0,0-.34-.27-.34-.47a.32.32,0,0,1,.23-.27c.11,0,.23,0,.35,0a3.81,3.81,0,0,0,1.48-.2c-.28-.19-.62,0-1,0h-.38c.77-.5,2.1-.27,2.87-.85.16.15.82,0,1.29-.12v-.27a2.3,2.3,0,0,1-.43.27c-.24,0-.39-.51-.39-.7-.12,0-.16-.23-.16-.35,0-1.47,1.32-1.9,1.95-2.52.39-.2.43,0,.89,0a1.42,1.42,0,0,0,1.25-.67,1.14,1.14,0,0,1-.18-.3l0-.09v-.11a1.27,1.27,0,0,0,.39,0c.23,0,1.2.15,1.56-.08s.35-.74.93-.78c0,.55,0,.58.58.58-.89.08-2.29.7-2.29,1.56,0,.35.54,1,.78,1s1-1,1.8-1.27c.2,0,2.86-1.06,2.86-1.37s-1-.47-1.24-.47c-1.13,0-2.92-1.09-2.92-2.06,0-.23.31-.54.39-.93-.2,0-.62-.12-1-.12.23-.31,1.63-.5,1.63-1.28s-1.2-.58-2-.58c-1.71,0-2.49,1.2-3.66,1.36.51-1,1.33-.7,2.18-1.56.54-.54.16-.89,1-1.16,1.48-.47,2.34-.2,3.81-.2,2,0,3,.64,4.16-.85.57-.73,3.69-.9,3.69-2.14A3.07,3.07,0,0,0,123.15,61ZM92.87,75c.12-.55.43-.9.43-1.44s-1.44-1.17-1.75-1.17c-.64,0,0,1-1.41,1-.43,0-.42,1.2-.42,1.7v1.24c0,.5-.19,1.67-.77,1.67a.89.89,0,0,1-.9-.78,7.89,7.89,0,0,1,1-3.85c-.39,0-.54.31-.93.55.08-.78,1.63-1.87,2.49-1.87a5.33,5.33,0,0,0,1.75,0v-.46c-.82,0-1.29-.51-2.22-.51-.43,0-.58.39-1.09.39a.69.69,0,0,1-.66-.47h-.78c.16-.31.43-.43.43-1-.58.12-1.28.86-1.71.86s-.39.5-1,.5c-.31,0-.43,0-.58-.39a2.88,2.88,0,0,0-.7.27h-.58a10.89,10.89,0,0,1,3-2.21c.5-.16.58,0,1-.2s.23-.81.62-.81.78.7.94.85a1.48,1.48,0,0,0,0-.54h.31a9.24,9.24,0,0,1,2,1.47c.23.47,0,.86.31,1.17.89.9,2.1.7,3.07,1.33h1c.47.3,1,.69,1,1.28a.41.41,0,0,1-.39.46c-.46,0-.93-.5-1.09-.66-.15.62-.5,2.49-1,2.49-.38-.31-.38-.58-.54-1.2C93.26,74.87,93.34,75,92.87,75Zm1,3.22c-.39,0-.54-.58-.54-1,.11.2.35.47.58.47s.39-.24.55-.39c.34-.35.93-.31,1.47-.31s.73.27.92.16A8.65,8.65,0,0,1,93.88,78.25Zm3.2-1.14c.15-.09.3-.16.42-.22,0-.1-.07-.21-.11-.31,0,.1.08.21.11.31C97.38,77,97.23,77,97.08,77.11Zm.5-1.19c-.2,0-.2,0-.47,0,0,.07.09.17.14.28,0-.14-.22-.21-.22-.36s.39-.27.51-.31a16.08,16.08,0,0,1,3.65-.74C101.18,76.3,98.7,75.92,97.58,75.92Zm-.22.58a1.8,1.8,0,0,1-.08-.21C97.3,76.36,97.33,76.42,97.36,76.5Zm13.75-3.21.07.16Zm-.42-2.7a2,2,0,0,0-.18-.42A2,2,0,0,1,110.69,70.59ZM111,73a1.16,1.16,0,0,1,0-.18A1.16,1.16,0,0,0,111,73ZM111,72.6a1.49,1.49,0,0,0,0-.21A1.49,1.49,0,0,1,111,72.6Zm0-.49,0-.37Zm0-.6a2.7,2.7,0,0,0,0-.28A2.7,2.7,0,0,1,110.86,71.51ZM110.8,71c0-.1,0-.2-.07-.3C110.75,70.84,110.78,70.94,110.8,71Z"/><path class="cls-1" d="M38.87,59.48c.2,0,.31-.12.31-.39,0-.86-1-1-.93-2-.81-.16-1-.16-1,.78.47-.32.23-.12.86,0-.12.19,0,.5,0,.77C38.1,58.66,38.53,59.48,38.87,59.48Z"/><path class="cls-1" d="M36.08,55.59c-.08,0-.39.12-.39,0-.2-.62,0-.62,0-1.63-.55.31-.2,0-.9,0-.15,0-.46.08-.46.39a1.2,1.2,0,0,0,1.05,1.16A2,2,0,0,0,36,57.07C36.39,56.68,36,56.13,36.08,55.59Z"/><path class="cls-1" d="M45.33,67.45c.62.39,2,1.43,2.87,1.43h.35v-.35a8.61,8.61,0,0,0-3.61-2.48c-.27-.08-.62-.54-1-.54a1.25,1.25,0,0,0-.54.19h.15s.39.11.59.15a.76.76,0,0,1-.39.35c.15.47,1.24.86,2,.86C45.6,67.17,45.41,67.17,45.33,67.45Z"/><path class="cls-1" d="M39.5,62.16c0-.19-.2-.27-.2-.46a3,3,0,0,0,0-.86c-.07.19-.23.5-.5.5s.23-.42.23-.46c-.35,0-.54-.27-.9-.27v.31c.16.23.32.69.47.69s.31.43.63.51c0,.08-.16.2-.16.43s.23.74.54.74-.31-.58-.31-.74S39.5,62.32,39.5,62.16Z"/><path class="cls-1" d="M16.25,54.73h.47v.47a7,7,0,0,0-1.52,1.09c-.35-.27-.54-.31-.82-.51v-.46A6.45,6.45,0,0,1,16.25,54.73Z"/><path class="cls-1" d="M116.47,67.8c.31,0,.43,0,.54-.24-.81-.46-1.55-1.2-2.76-.93A5.6,5.6,0,0,0,116.47,67.8Z"/><path class="cls-1" d="M1.09,50.93c.16-.35.27-.28.58-.28.47,0,.51.28.59.67H1c-.15-.12-.39-.24-.46-.39Z"/></g></g></svg>