<svg xmlns="http://www.w3.org/2000/svg" viewBox="0 0 115.85 142.64"><defs><style>.cls-1{fill:#da8d21;}</style></defs><g id="Capa_2" data-name="Capa 2"><g id="Capa_1-2" data-name="Capa 1"><path class="cls-1" d="M108.86,109.71c-.37,1.61-.33.81-.63,1.4v2.57c-1,1-2.76,3-2.76,4.35,0,2,2.66,3.36,3.26,4.25-.4.41-.79.3-1.29.41-.89.29-1.58-.11-2.47.29-1.28.59-1.59,1.88-2.87,1.88-1.48,0-2.38-2-4.15-2-1.59,0-2,.89-3.27,1.29a4,4,0,0,1,0,2.17c-1.48,0-1.68-1.48-2.57-1.48A1.25,1.25,0,0,0,91,125.94l1.88,2.18c-.1.6-.4.9-.4,1.19s2.68,2.77,3.47,2.77a1.45,1.45,0,0,0,.39.89c-.49.3-1.48-.1-1.68.6h-.2a5.41,5.41,0,0,1-2.57-1.49v.79a3.12,3.12,0,0,1,.59,1.69c0,.59-1,1.78,0,2.27H91.12a3.24,3.24,0,0,1-3-3.26c0-.7,1-1,1.29-1.49H87.75c-.39,0-.59-.89-.59-1.09a7.15,7.15,0,0,0-2.08-3.16c-1.18-1.19-2.76-2.08-2.76-4.16V121.1c0-1.39-2.19-3.46-3.57-4.15s-3-.8-3-2.18H74.4c-2.18,0-4.65-3.37-4.65-5.64h-3c-1.28,0-.69-2.08-1.28-2.67-1.09.69-3.27.69-3.27,1.78,0,.19.29.59.5.59a5.45,5.45,0,0,0-.4,1.78c0,1.49.89,2.08,2.08,2.48,1.48.49,2.27,2.18,2.57,3.06.39,1.38,1.09,3,1.88,3.36,1.48.7,2.47.2,4,.2a1,1,0,0,1-.2.79c-.4,1.19,2,1.69,2.57,2,2,1,4.35,1.78,4.06,3.86-1-.19-1.59-1.48-3.17-1.48-1.19,0-2.18.59-2.18,1.58,0,1.29,1.78,1.59,1.78,2.87,0,.5-1.28.5-1.28.5-.89.88-.69,3-2.08,3-.69,0-1.09-.29-1.09-.69,1.19,0,1.68-1.48,1.68-2.67,0-1.48-.79-1.88-1-2.77a10.14,10.14,0,0,1-2.77-3c-.4,0-1.88-.42-1.88-1-3.06-.7-3.75-1.59-5.44-3.28-.69-.68-2.17-1.08-2.37-1.77-1.78-2.28-2.37-6.34-6.13-6.34-1.79,0-1.88,1.29-2.77,1.69-1.89.89-3.17,2.67-5.35,2.67s-3.56-1.09-5.54-1.09c-1.48,0-3.06,1-3.06,2.48l.59,2.17c-.59,2-2.77,2.67-4.85,3.16-1.78.41-4.65,4.46-4.65,6.64a1.3,1.3,0,0,0,1,1.28c-1.29,2-1.88,3.17-4,4.15-1.19.59-1.39,3.08-3.37,2.48V137c-.89-.29-2.57.2-3.07.2-2.37,0-3.66,2-5.84,2-1.48,0-1.58-3.65-3.85-3.65-1.69,0-2.77.68-4.26.68a.77.77,0,0,1-.79-.79v-3.95A1.53,1.53,0,0,1,2,130.1c0-1.28,1.09-1.58,1.09-2.27,0-2.48.89-5,.89-7.62,0-1.48-1.09-2.87-1.09-3.76,0-.59,3.36-2.67,4-2.67.39,0,.88.59,1.48.39h4.45a3.45,3.45,0,0,0,1.68.6h4.75c1.19-.3,1.78.39,2.78.39.68,0,2.17-.49,2.47-.49,0-2,1.28-2.57,1.28-4.45,0-.4-.1-2.14-.1-2.73l-.2.15a4,4,0,0,0,.4-1.48c0-.89-.59-.7-.59-1.49-2,0-2.58-1.78-2.58-3.35-.59-.11-.68-.6-1.18-.7-1.58-.5-5.94-1.29-5.94-2.78-.1,0-.1-.29-.1-.39,0-.89,2.77-1.48,3.76-1.78.3.6,1.88,1,2.67,1a10,10,0,0,0,2.28-.49v-.69c-.69-.2-.4-1.68-.5-2v-.8h1a4.06,4.06,0,0,0,3,1.29,1.88,1.88,0,0,0,1.69-1.48c3,0,3.75-2.18,4.35-4.56a5.27,5.27,0,0,0,1.38-.2A35.76,35.76,0,0,0,40,85.58c.79-.79.49-2,.49-3.16,0-.4.89-1,1-1.1,1.39-1.38,2.77-3,5-3,1.29,0,.7.3,1.4,0,.29.3.59-.49.78-.69.7-.7,1.59-.1,2.48-.1.59,0,2.18-.89,2.18-1.68a20.14,20.14,0,0,0-.7-2.48c-.39-2.67-2-3.46-2-5.84,0-4.15,3.86-4.45,6.34-6.23v1.19a4.88,4.88,0,0,0-.6,2.57c0,1,1.09,1.09,1.88,1.09V67c0,.49-.89.69-1.18,1-1,1-2.18,1.87-2.18,3.65,0,1,.49,1.68,1.08,1.78,0,.6.1.79,0,1.09,1.1,0,1.49.4,2.38.4.2.49.4,1.18.69,1.18,2.68,0,4.55-2.27,6.83-2-.1.49-.6.8-.6,1.09A10.34,10.34,0,0,0,67,76.58c1.09,0,1.18-.69,1.69-.89,1.67-.79,3-.5,4.44-1.19.89-.4,2.48-1.88,3.66-1.88a10.22,10.22,0,0,1,3.36.4,3.88,3.88,0,0,0-.39,1.08c2.58,0,5.22-.5,7.1-.5s3.09-.13,5.07-.13S95,77.17,95,79.34c0,1.3-1.39,2-1.39,3.27,0,2.08,1.88,3.37,1.88,5.25,0,1.18-1.88,1.58-2.27,2.17a9.3,9.3,0,0,0-1.59,5.74c0,2.77,2,2.18,4.26,2.18,3.16,0,4.65-1.29,7-1.29,2.67,0,2.07,5.14,4.54,5.14v4.06c0,.3.3.5.5.7l.49.59c.5,0,1.68-.5,2.38-.59.1.49,0,1,.1,1.48C109.92,108.24,108.86,108.72,108.86,109.71Z"/><path class="cls-1" d="M59.46,54.91c-1.29-.59-1.49-1.48-2.18-2.47-2.07,3-5.24,6.72-9.39,6.72-.6,0-4.46-2.37-4.46-2.76,0-.79,1.29-1.29,1.68-1.49V53.43a4.51,4.51,0,0,0-2.57.49c0-.69,1.09-1.88,1.59-2.57-1.49-1.78-1.69-4.26-1.69-7,0-1.48,1.59-1.38,2.18-2.27a7.52,7.52,0,0,1,4.45-3.46c1.78-.5,2.18-2.87,5.74-2.48-1.09-.29-1.48-.49-2.38-.69,4.36-1.09,6-4.55,9-6.93,1.18-.89,1-4,1.78-4,0,0,1-2.17,1-2.27a9,9,0,0,1,4.65-4.15c2.07-.79,4.85-4.16,5.34-6.24-2.47.5-3.46,1.79-5.84,1.79a5.63,5.63,0,0,1,2-1.39,7.38,7.38,0,0,1-1.48-.3c.19-1,.69-1.58,1.48-1.58.31,0,.5.3.79.3A4.84,4.84,0,0,1,72,9.4a1.5,1.5,0,0,1,.3,1.78c1.58,0,2,1,3.27,1,.49,0,1.58-2.38,1.78-2.48a2.75,2.75,0,0,0-1.58-.19,2.92,2.92,0,0,1,2.27-1.59,3.47,3.47,0,0,0,2-.19l-.79-.79c1-1,2.77-.9,4.25-1.19V6.93c1.28-.3,1.58-2.57,3.66-2.68V5.94c1.29-2.38,3-1.78,4.75-2.77-.79-.3-1.48-.5-1.48-1.19,0-.49,1.78-.89,2.07-1.48C93.1,1.19,93.69,2,94.58,2,96.07,2,99.83-.49,99.83.79S98.14,2.58,97.75,4c2,.2,2.57-2.07,4.25-3a4.47,4.47,0,0,1,.49,1.78A17.12,17.12,0,0,1,106.25,0c.1,1.29-.1,2.17,1,2.28.29-.79.69-1.49,1.48-1.49a20.59,20.59,0,0,1,3.47,1.59c-.9,2.37-1.68,1.58-4,2.37,1,.79,1.69.89,1.69,1.48.89.1,3,.4,3.26.4-1.38,1-5,2.77-5,5.05,0,1.87,3.47,1.78,3.47,4,0,1.69-1.78,2.48-1.78,4.16,0,1.88,2,3,2,4.94,0,1.2-1,1.79-1,3,0,2.18,3,2.77,3,4.95,0,.6-.9,1.09-1.19,1.29.89,1.58,3.16,2,3.16,4.15,0,3.26-6.82,6.93-8.9,9.7-1,2-5.54,2.27-7.42,2-2,.59-4.25,1.48-5.94,1.48-1.28,0-2.17-.2-2.17-1.29-2.08,0-4.26-1.38-4.26-3.46,0-1,1.09-1.68,1.39-2.18-1-.39-1.89-2.66-1.89-3.75a6.26,6.26,0,0,0,0-2c4.16,0,6.34-5.44,8.91-6.93,1.39-.79,3.76-1.29,3.76-3,0-2.47-3.26-3-5.74-3-3.26,0-5.94,1.19-5.94,4,0,1.19.3,1.68,0,2.28,0,2.27-4.55,4.25-6.62,5.44-1.68,1-3.46,1.39-4.45,3.17-.79,1.38.19,3.26-1.29,4v2a2.31,2.31,0,0,1,.79,1.78c1.78.3,4.45,2.08,4.45,4,0,1.49-3,4-4,4-2,0-2.77,2.87-2.77,4.95a1.63,1.63,0,0,0,1.48,1.67c-.3,2.68-2.67,2.88-3,4.75H69.65c-1.68,0-2.28,3.17-4.75,3.17-.79,0-2.17-4.16-2.17-4.64,0-.31.19-.7.19-1-1.68-1.68-1.48-3.07-2.17-5.24-.5-1.48-2-1.88-2-3.66a4.36,4.36,0,0,1,.69-1.78Z"/><path class="cls-1" d="M2.08,75.39A5.73,5.73,0,0,0,5,74.3c-.4-.59-.6-.79-.6-1.28,0-.69,2-1.88,3-1.88H9c2.28,0,3.37,2.37,3.37,4,0,.8-1.78.7-1.78,1.49V80c0,.79.69,2-.1,2.77-.6.59-1.59.49-2.58.49-1.58,0-2.77,1.69-3.56,2.18a4,4,0,0,1-1.88.4A2.55,2.55,0,0,1,0,83.6c0-2.47,2.47-2.67,2.87-5-1-.5-1.88-1.09-1.88-2.08C1,75.19,1.78,75.39,2.08,75.39Z"/><path class="cls-1" d="M29.88,80.53c.69-.49.49-.39,1.28-.39A2,2,0,0,1,33.24,82c0,1.78-2.37,2.67-3.17,4a6.46,6.46,0,0,0,2,.39v.69a3.73,3.73,0,0,1-2.76,1.49h-4c-1,0-3.66.89-5.15.89-.69,0-1.09-.6-1.78-.6a1.64,1.64,0,0,0-1.58,1.69H15.43a1.79,1.79,0,0,0-1.38.79h-.69v-.6a30.33,30.33,0,0,1,3.46-3.66c1.38-.39,3.36.1,3.36-1.28,0-.2-.19-.5-.19-.69a2.24,2.24,0,0,1-1.79,1c-1.28,0-1.68-1.18-2.77-1.18-.59,0-.49.49-1,.49a.62.62,0,0,1-.49-.49c0-1.49,2.77-1.59,2.77-3.06,0-1.3-.79-1.79-.79-2.88,1.78,0,4-.89,4.45-1.88V75.59c-1,.1-2.37-.1-2.37-1.09,0-.79.49-1,.69-1.39-.3,0-.6-.09-.89-.09-1,0-1.49.49-2.28.49s-1.58,0-1.58-.79,1-1.29,1-2.08-.3-1.09,0-1.88a3,3,0,0,1-1.68-.49,1.14,1.14,0,0,0,0,1.48h-.8V68.17a.75.75,0,0,1,.4-.7v-.89c-.59-.09-1.48-.39-1.48-.79s.69-1.19.69-1.28v-.8c-1.48-.29-2.28-.59-2.28-1.88h1.59a.87.87,0,0,0,.69.89c.2,0,.39-.39.39-.59-.19-.1-.49-.4-.49-.59a1.25,1.25,0,0,1,1.39-1.18c0-.8.39-1.2.39-1.69s1-1.28,1.59-1.28H18.2c.4,0,1,.69,1,.88,0,1.39-2.17,1.19-2.47,2.58a1.26,1.26,0,0,0,.3.78h5.83c.4,2.78-2.67,4-2.67,6a1.09,1.09,0,0,0-.79.8c1,.29,1.48-.1,2.28.09,1.88.6,1.58,3,2.77,4.16C26,74.3,28.59,75,28.59,77.37c0,.79,1.09,1.29,1.09,2.07a.75.75,0,0,1-.5.7v.69c.7-.19.8-.5,1.19-.69Z"/><path class="cls-1" d="M62.92,133.07v.69c.3.5,1.09.4,1.39.5,1.58.49,2.86,2.18,4.55,2.57,0,.3.49.39.79.39s.59-.39.59-.69c0-.79-.49-.88-.49-1.57a2.85,2.85,0,0,1,.49-1.1l.41-1.14c-1.5-.3-2.09.65-3.38.65S65,132.08,62.92,133.07Z"/><path class="cls-1" d="M52.83,117.64c.7,0,1.09-.9,1.58-1,0,.49.1,1,.4,1.09-.3,1.18-.59,3.36-.89,4-1-.19-1.29-3.06-1.78-3.86C52.33,117.83,52.63,117.64,52.83,117.64Z"/><path class="cls-1" d="M52.43,125.75c0-.79-.89-1.29-1-2.08,1.09-.3,1.18-1.29,2.08-1.29.69,0,1,.6,1.28.6.86,1.57.61,2.46.61,4a3.43,3.43,0,0,1-2.59,2.78c-1,0-1-1.29-1-2.08S52.43,126.44,52.43,125.75Z"/><path class="cls-1" d="M101.3,142.27c-1.28.69-1.77.2-2.46.2a9.51,9.51,0,0,1-3.76-.79A14.22,14.22,0,0,1,101.3,142.27Z"/></g></g></svg>