<!--?xml version="1.0" encoding="utf-8"?-->
<!-- Generator: Adobe Illustrator 24.1.0, SVG Export Plug-In . SVG Version: 6.00 Build 0)  -->
<svg version="1.1" id="Capa_1" xmlns="http://www.w3.org/2000/svg" xmlns:xlink="http://www.w3.org/1999/xlink" x="0px" y="0px" viewBox="0 0 1674.8 1523.4" style="" xml:space="preserve">
<style type="text/css">
	.st0{fill:none;stroke:#97999B;stroke-width:102;stroke-linecap:round;stroke-linejoin:round;}
	.st1{fill:none;stroke:#97999B;stroke-width:63;stroke-linecap:round;stroke-linejoin:round;}
	.st2{fill:none;stroke:#97999B;stroke-width:27;stroke-linecap:round;stroke-linejoin:round;}
</style>
<g id="Capa_2_1_">
	<g id="Capa_1-2">
		<g id="Capa_5">
			<path class="st0 DyLFHZdD_0" d="M114.5,176.4l435.9,251.7l-2.4,1.4L293,282.2c-17.8-10.3-38.1-15.8-58.7-15.8
				c-64.8,0-117.5,52.7-117.5,117.4v755.7c-0.1,64.8,52.4,117.3,117.2,117.4c20.7,0,41-5.4,58.9-15.8l679-392l153.9-88.9l2.4,1.4
				L114.5,1347V176.4z"></path>
			<path class="st0 DyLFHZdD_1" d="M1507.4,1316.4l-383-221.1l2.4-1.4l255,147.3c56.1,32.5,127.8,13.4,160.3-42.7
				c10.4-17.9,15.8-38.2,15.8-58.9V383.9c0-64.7-52.7-117.4-117.5-117.4c-20.6,0-40.8,5.5-58.7,15.8l-678.9,392l-153.9,88.9
				l-2.4-1.4l1013.7-585.3V1347L1507.4,1316.4z"></path>
		</g>
		<g id="Capa_5-2">
			<path class="st1 DyLFHZdD_2" d="M84.5,124.5l97.9,56.5l428,247.1l-62.4,36L278,308.2c-41.8-24.1-95.3-9.8-119.4,32
				c-7.7,13.3-11.7,28.3-11.7,43.7v755.6c0,48.3,39.1,87.4,87.4,87.4c15.3,0,30.4-4,43.7-11.7l679-392l168.9-97.5l62.4,36
				L84.5,1398.9V124.5z"></path>
			<path class="st1 DyLFHZdD_3" d="M1492.4,1342.4l-428-247.1l62.4-36l270,155.9c41.8,24.1,95.3,9.8,119.4-32c7.7-13.3,11.7-28.3,11.7-43.7
				V383.9c0-48.3-39.3-87.5-87.6-87.4c-15.3,0-30.4,4.1-43.6,11.7l-678.9,392l-168.9,97.5l-62.4-36l97.9-56.5L1492.3,181l97.9-56.5
				V1399L1492.4,1342.4z"></path>
		</g>
		<g id="Capa_5-3">
			<path class="st1 DyLFHZdD_4" d="M57.5,77.7l138.4,79.9l468.5,270.5L548,495.3L264.5,331.6c-28.9-16.7-65.9-6.8-82.6,22.1
				c-5.3,9.2-8.1,19.6-8.1,30.2v755.6c0,33.4,27,60.4,60.4,60.4c0,0,0,0,0,0c10.6,0,21-2.8,30.2-8.1l679-392l182.5-105.3l116.4,67.2
				l-1184.8,684V77.7z"></path>
			<path class="st1 DyLFHZdD_5" d="M1478.9,1365.8l-468.5-270.5l116.4-67.2l283.5,163.7c28.9,16.7,65.8,6.8,82.5-22.1
				c5.3-9.2,8.1-19.6,8.1-30.2V383.9c0-33.4-27.1-60.4-60.5-60.4c-10.6,0-21,2.8-30.2,8.1l-678.9,392L549,828.9l-116.4-67.2
				L571,681.8l907.9-524.2l138.4-79.9v1368L1478.9,1365.8z"></path>
		</g>
		<g id="Capa_5-4">
			<path class="st1 DyLFHZdD_6" d="M35.5,39.6l171.4,99l501.5,289.5L548,520.7L253.5,350.6c-18.3-10.7-41.8-4.4-52.5,13.9
				c-3.4,5.9-5.2,12.5-5.2,19.3v755.7c0,21.2,17.2,38.4,38.4,38.4c0,0,0,0,0,0c6.7,0,13.4-1.8,19.2-5.2l679-392L1125.8,669
				l160.4,92.6L35.5,1483.8V39.6z"></path>
			<path class="st1 DyLFHZdD_7" d="M1467.9,1384.8l-501.5-289.5l160.4-92.6l294.5,170.1c18.3,10.7,41.8,4.4,52.5-13.9
				c3.4-5.9,5.2-12.5,5.2-19.3V383.9c0-21.2-17.2-38.4-38.4-38.4c-6.8,0-13.4,1.8-19.3,5.2l-678.9,392L549,854.3l-160.4-92.6
				L560,662.8l907.9-524.2l171.4-98.9v1444.2L1467.9,1384.8z"></path>
		</g>
		<g id="Capa_5-5">
			<path class="st2 DyLFHZdD_8" d="M1134.1,648.4c-5.1-2.9-11.3-2.9-16.4,0L921.5,761.7l-679,392c-7.9,4.5-17.9,1.8-22.4-6.1
				c-1.4-2.5-2.2-5.3-2.2-8.1V383.9c0-9.1,7.4-16.4,16.5-16.4c2.9,0,5.7,0.8,8.1,2.2l297.3,171.7c5.1,2.9,11.3,2.9,16.4,0
				l171.6-99.1c7.8-4.6,10.5-14.6,6-22.4c-1.4-2.5-3.5-4.5-6-6L217.9,119.5L38.1,15.7c-7.9-4.5-17.9-1.8-22.4,6.1
				c-1.4,2.5-2.2,5.3-2.2,8.1v1463.6c0,9.1,7.4,16.4,16.5,16.4c2.9,0,5.7-0.8,8.1-2.2l179.8-103.8l908-524.2l179.8-103.8
				c7.8-4.6,10.5-14.6,6-22.4c-1.4-2.5-3.5-4.5-6-6L1134.1,648.4z"></path>
			<path class="st2 DyLFHZdD_9" d="M540.8,875c5.1,2.9,11.3,2.9,16.4,0l196.2-113.3l678.9-392c7.9-4.5,17.9-1.8,22.4,6.1
				c1.4,2.5,2.2,5.3,2.2,8.1v755.6c0,9.1-7.4,16.4-16.5,16.4c-2.9,0-5.7-0.8-8.1-2.2L1135,982c-5.1-2.9-11.3-2.9-16.4,0L947,1081.1
				c-7.8,4.6-10.5,14.6-6,22.4c1.4,2.5,3.5,4.5,6,6l509.9,294.4l179.8,103.8c7.9,4.5,17.9,1.8,22.4-6.1c1.4-2.5,2.2-5.3,2.2-8.1
				V29.9c0-9.1-7.4-16.4-16.5-16.4c-2.9,0-5.7,0.8-8.1,2.2l-179.8,103.8L549,643.7L369.2,747.5c-7.8,4.6-10.5,14.6-6,22.4
				c1.4,2.5,3.5,4.5,6,6L540.8,875z"></path>
		</g>
	</g>
</g>
<style data-made-with="vivus-instant">.DyLFHZdD_0{stroke-dasharray:5354 5356;stroke-dashoffset:5355;animation:DyLFHZdD_draw_0 3200ms linear 0ms infinite,DyLFHZdD_fade 3200ms linear 0ms infinite;}.DyLFHZdD_1{stroke-dasharray:5354 5356;stroke-dashoffset:5355;animation:DyLFHZdD_draw_1 3200ms linear 0ms infinite,DyLFHZdD_fade 3200ms linear 0ms infinite;}.DyLFHZdD_2{stroke-dasharray:5713 5715;stroke-dashoffset:5714;animation:DyLFHZdD_draw_2 3200ms linear 0ms infinite,DyLFHZdD_fade 3200ms linear 0ms infinite;}.DyLFHZdD_3{stroke-dasharray:5713 5715;stroke-dashoffset:5714;animation:DyLFHZdD_draw_3 3200ms linear 0ms infinite,DyLFHZdD_fade 3200ms linear 0ms infinite;}.DyLFHZdD_4{stroke-dasharray:6037 6039;stroke-dashoffset:6038;animation:DyLFHZdD_draw_4 3200ms linear 0ms infinite,DyLFHZdD_fade 3200ms linear 0ms infinite;}.DyLFHZdD_5{stroke-dasharray:6037 6039;stroke-dashoffset:6038;animation:DyLFHZdD_draw_5 3200ms linear 0ms infinite,DyLFHZdD_fade 3200ms linear 0ms infinite;}.DyLFHZdD_6{stroke-dasharray:6301 6303;stroke-dashoffset:6302;animation:DyLFHZdD_draw_6 3200ms linear 0ms infinite,DyLFHZdD_fade 3200ms linear 0ms infinite;}.DyLFHZdD_7{stroke-dasharray:6300 6302;stroke-dashoffset:6301;animation:DyLFHZdD_draw_7 3200ms linear 0ms infinite,DyLFHZdD_fade 3200ms linear 0ms infinite;}.DyLFHZdD_8{stroke-dasharray:6470 6472;stroke-dashoffset:6471;animation:DyLFHZdD_draw_8 3200ms linear 0ms infinite,DyLFHZdD_fade 3200ms linear 0ms infinite;}.DyLFHZdD_9{stroke-dasharray:6470 6472;stroke-dashoffset:6471;animation:DyLFHZdD_draw_9 3200ms linear 0ms infinite,DyLFHZdD_fade 3200ms linear 0ms infinite;}@keyframes DyLFHZdD_draw{100%{stroke-dashoffset:0;}}@keyframes DyLFHZdD_fade{0%{stroke-opacity:1;}93.75%{stroke-opacity:1;}100%{stroke-opacity:0;}}@keyframes DyLFHZdD_draw_0{0%{stroke-dashoffset: 5355}62.5%{ stroke-dashoffset: 0;}100%{ stroke-dashoffset: 0;}}@keyframes DyLFHZdD_draw_1{3.4722222222222223%{stroke-dashoffset: 5355}65.97222222222223%{ stroke-dashoffset: 0;}100%{ stroke-dashoffset: 0;}}@keyframes DyLFHZdD_draw_2{6.944444444444445%{stroke-dashoffset: 5714}69.44444444444444%{ stroke-dashoffset: 0;}100%{ stroke-dashoffset: 0;}}@keyframes DyLFHZdD_draw_3{10.416666666666668%{stroke-dashoffset: 5714}72.91666666666667%{ stroke-dashoffset: 0;}100%{ stroke-dashoffset: 0;}}@keyframes DyLFHZdD_draw_4{13.88888888888889%{stroke-dashoffset: 6038}76.38888888888889%{ stroke-dashoffset: 0;}100%{ stroke-dashoffset: 0;}}@keyframes DyLFHZdD_draw_5{17.36111111111111%{stroke-dashoffset: 6038}79.86111111111111%{ stroke-dashoffset: 0;}100%{ stroke-dashoffset: 0;}}@keyframes DyLFHZdD_draw_6{20.833333333333336%{stroke-dashoffset: 6302}83.33333333333334%{ stroke-dashoffset: 0;}100%{ stroke-dashoffset: 0;}}@keyframes DyLFHZdD_draw_7{24.305555555555557%{stroke-dashoffset: 6301}86.80555555555556%{ stroke-dashoffset: 0;}100%{ stroke-dashoffset: 0;}}@keyframes DyLFHZdD_draw_8{27.77777777777778%{stroke-dashoffset: 6471}90.27777777777777%{ stroke-dashoffset: 0;}100%{ stroke-dashoffset: 0;}}@keyframes DyLFHZdD_draw_9{31.25%{stroke-dashoffset: 6471}93.75%{ stroke-dashoffset: 0;}100%{ stroke-dashoffset: 0;}}</style></svg>
