<!--?xml version="1.0" encoding="utf-8"?-->
<!-- Generator: Adobe Illustrator 24.1.0, SVG Export Plug-In . SVG Version: 6.00 Build 0)  -->
<svg version="1.1" id="Capa_1" xmlns="http://www.w3.org/2000/svg" xmlns:xlink="http://www.w3.org/1999/xlink" x="0px" y="0px" viewBox="0 0 1725.5 1520.4" style="" xml:space="preserve">
<style type="text/css">
	.st0{fill:none;stroke:#4B5563;stroke-width:63;stroke-linecap:round;stroke-linejoin:round;stroke-miterlimit:10;}
	.st1{fill:none;stroke:#4B5563;stroke-width:27;stroke-linecap:round;stroke-linejoin:round;stroke-miterlimit:10;}
</style>
<g id="Capa_5_4_">
	<g>
		<g>
			<path class="st0 eZvTvVnl_0" d="M158.8,1229.9c2.1,2.3,4.2,4.5,6.5,6.6c18.3,17.5,40.8,29.4,65.1,34.7l-71.5,41.3V1229.9z M158.8,207.8
				l71.6,41.3c-28,6.2-52.9,21-71.6,41.5V207.8z"></path>
		</g>
		<g>
			<path class="st0 eZvTvVnl_1" d="M1495,1271.2c28-6.2,52.9-21,71.6-41.5v82.8L1495,1271.2z M1566.6,290.6c-18.7-20.5-43.5-35.3-71.6-41.5
				l71.6-41.3V290.6z"></path>
		</g>
	</g>
</g>
<g id="Capa_5_5_">
	<g>
		<g>
			<path class="st0 eZvTvVnl_2" d="M139.8,174.9l435.9,251.7l-2.4,1.4l-255-147.3c-17.8-10.3-38.1-15.8-58.7-15.8
				c-64.8,0-117.5,52.7-117.5,117.4V1138c0,31.9,13.2,62.8,36.2,84.8c22,21,50.9,32.6,81.2,32.6c20.5,0,40.8-5.5,58.7-15.8l679-392
				l153.9-88.9l2.4,1.4L139.8,1345.5V174.9z"></path>
		</g>
		<g>
			<path class="st0 eZvTvVnl_3" d="M1532.7,1314.9l-383-221.1l2.4-1.4l255,147.3c17.8,10.3,38.1,15.8,58.7,15.8c64.8,0,117.4-52.7,117.4-117.4
				V382.4c0-64.7-52.7-117.4-117.5-117.4c-20.5,0-40.8,5.5-58.7,15.8l-678.9,392l-153.9,88.9l-2.4-1.4l1013.7-585.3v1170.5
				L1532.7,1314.9z"></path>
		</g>
	</g>
</g>
<g id="Capa_5_6_">
	<g>
		<g>
			<path class="st0 eZvTvVnl_4" d="M109.8,123l97.9,56.5l428,247.1l-62.4,36l-270-155.9C290,299,274.9,295,259.7,295
				c-48.2,0-87.5,39.2-87.5,87.4V1138c0,23.7,9.8,46.7,26.9,63.1c16.4,15.7,37.9,24.3,60.5,24.3c15.3,0,30.4-4.1,43.7-11.7l679-392
				l168.9-97.5l62.4,36L109.8,1397.4V123z"></path>
		</g>
		<g>
			<path class="st0 eZvTvVnl_5" d="M1517.7,1340.9l-428-247.1l62.4-36l270,155.9c13.3,7.7,28.4,11.7,43.7,11.7c48.2,0,87.4-39.2,87.4-87.4
				V382.4c0-48.2-39.2-87.4-87.5-87.4c-15.3,0-30.4,4.1-43.7,11.7l-678.9,392l-168.9,97.5l-62.4-36l97.9-56.5l907.9-524.2l97.9-56.5
				v1274.5L1517.7,1340.9z"></path>
		</g>
	</g>
</g>
<g id="Capa_5_7_">
	<g>
		<g>
			<path class="st0 eZvTvVnl_6" d="M82.8,76.2l138.4,79.9l468.5,270.5l-116.4,67.2L289.8,330.1c-9.2-5.3-19.6-8.1-30.2-8.1
				c-33.3,0-60.5,27.1-60.5,60.4V1138c0,16.6,6.6,32.1,18.6,43.6c11.3,10.8,26.2,16.8,41.8,16.8c10.5,0,21-2.8,30.2-8.1l679-392
				L1151.2,693l116.4,67.2l-1184.8,684V76.2z"></path>
		</g>
		<g>
			<path class="st0 eZvTvVnl_7" d="M1504.2,1364.3l-468.5-270.5l116.4-67.2l283.5,163.7c9.2,5.3,19.6,8.1,30.2,8.1c33.3,0,60.4-27.1,60.4-60.4
				V382.4c0-33.3-27.1-60.4-60.5-60.4c-10.5,0-21,2.8-30.2,8.1l-678.9,392L574.3,827.4l-116.4-67.2l138.4-79.9l907.9-524.2
				l138.4-79.9v1368L1504.2,1364.3z"></path>
		</g>
	</g>
</g>
<g id="Capa_5_1_">
	<g>
		<g>
			<path class="st0 eZvTvVnl_8" d="M60.8,38.1l171.4,99l501.5,289.5l-160.4,92.6L278.8,349.1c-5.8-3.4-12.5-5.2-19.2-5.2
				c-21.2,0-38.5,17.2-38.5,38.4V1138c0,10.6,4.2,20.4,11.8,27.7c7.2,6.9,16.7,10.7,26.6,10.7c6.7,0,13.3-1.8,19.2-5.2l679-392
				l193.4-111.7l160.4,92.6L60.8,1482.3V38.1z"></path>
		</g>
		<g>
			<path class="st0 eZvTvVnl_9" d="M1493.2,1383.3l-501.5-289.5l160.4-92.6l294.5,170.1c5.8,3.4,12.5,5.2,19.2,5.2c21.2,0,38.5-17.2,38.5-38.4
				V382.4c0-21.2-17.3-38.4-38.5-38.4c-6.7,0-13.3,1.8-19.2,5.2l-678.9,392L574.3,852.8l-160.4-92.6l171.4-98.9l907.9-524.2
				l171.4-98.9v1444.2L1493.2,1383.3z"></path>
		</g>
	</g>
</g>
<g id="Capa_5">
	<path class="st1 eZvTvVnl_10" d="M1159.4,646.9c-5.1-2.9-11.3-2.9-16.4,0L946.8,760.2l-679,392c-10.9,6.3-24.6-1.6-24.6-14.2V971.2v-236V382.4
		c0-12.6,13.7-20.5,24.6-14.2l297.3,171.7c5.1,2.9,11.3,2.9,16.4,0l171.6-99.1c10.9-6.3,10.9-22.1,0-28.4L243.2,118L63.4,14.2
		c-10.9-6.3-24.6,1.6-24.6,14.2V236v617.2v236v195.2V1492c0,12.6,13.7,20.5,24.6,14.2l179.8-103.8l908-524.2L1331,774.4
		c10.9-6.3,10.9-22.1,0-28.4L1159.4,646.9z"></path>
	<path class="st1 eZvTvVnl_11" d="M566.1,873.5c5.1,2.9,11.3,2.9,16.4,0l196.2-113.3l678.9-392c10.9-6.3,24.6,1.6,24.6,14.2v166.8v236V1138
		c0,12.6-13.7,20.5-24.6,14.2l-297.3-171.7c-5.1-2.9-11.3-2.9-16.4,0l-171.6,99.1c-10.9,6.3-10.9,22.1,0,28.4l509.9,294.4
		l179.8,103.8c10.9,6.3,24.6-1.6,24.6-14.2v-207.6V667.2v-236V236V28.4c0-12.6-13.7-20.5-24.6-14.2L1482.2,118L574.3,642.2
		L394.5,746c-10.9,6.3-10.9,22.1,0,28.4L566.1,873.5z"></path>
</g>
<style data-made-with="vivus-instant">.eZvTvVnl_0{stroke-dasharray:499 501;stroke-dashoffset:500;animation:eZvTvVnl_draw 4000ms linear 0ms forwards;}.eZvTvVnl_1{stroke-dasharray:500 502;stroke-dashoffset:501;animation:eZvTvVnl_draw 4000ms linear 181ms forwards;}.eZvTvVnl_2{stroke-dasharray:5354 5356;stroke-dashoffset:5355;animation:eZvTvVnl_draw 4000ms linear 363ms forwards;}.eZvTvVnl_3{stroke-dasharray:5354 5356;stroke-dashoffset:5355;animation:eZvTvVnl_draw 4000ms linear 545ms forwards;}.eZvTvVnl_4{stroke-dasharray:5713 5715;stroke-dashoffset:5714;animation:eZvTvVnl_draw 4000ms linear 727ms forwards;}.eZvTvVnl_5{stroke-dasharray:5713 5715;stroke-dashoffset:5714;animation:eZvTvVnl_draw 4000ms linear 909ms forwards;}.eZvTvVnl_6{stroke-dasharray:6037 6039;stroke-dashoffset:6038;animation:eZvTvVnl_draw 4000ms linear 1090ms forwards;}.eZvTvVnl_7{stroke-dasharray:6037 6039;stroke-dashoffset:6038;animation:eZvTvVnl_draw 4000ms linear 1272ms forwards;}.eZvTvVnl_8{stroke-dasharray:6300 6302;stroke-dashoffset:6301;animation:eZvTvVnl_draw 4000ms linear 1454ms forwards;}.eZvTvVnl_9{stroke-dasharray:6300 6302;stroke-dashoffset:6301;animation:eZvTvVnl_draw 4000ms linear 1636ms forwards;}.eZvTvVnl_10{stroke-dasharray:6470 6472;stroke-dashoffset:6471;animation:eZvTvVnl_draw 4000ms linear 1818ms forwards;}.eZvTvVnl_11{stroke-dasharray:6470 6472;stroke-dashoffset:6471;animation:eZvTvVnl_draw 4000ms linear 2000ms forwards;}@keyframes eZvTvVnl_draw{100%{stroke-dashoffset:0;}}@keyframes eZvTvVnl_fade{0%{stroke-opacity:1;}99.2248062015504%{stroke-opacity:1;}100%{stroke-opacity:0;}}</style></svg>
