<?xml version="1.0" encoding="utf-8"?>
<!-- Generator: Adobe Illustrator 24.1.0, SVG Export Plug-In . SVG Version: 6.00 Build 0)  -->
<svg version="1.1" id="Capa_1" xmlns="http://www.w3.org/2000/svg" xmlns:xlink="http://www.w3.org/1999/xlink" x="0px" y="0px"
	 viewBox="0 0 4023.7 1520.4" style="enable-background:new 0 0 4023.7 1520.4;" xml:space="preserve">
<style type="text/css">
	.st0{fill:#EFEFEF;}
</style>
<g>
	<g>
		<path class="st0" d="M2563.4,444.4c0-121.2,1.9-257,5-337.3h-4.9C2530.2,252,2459.2,488.6,2391,710.8h-130.8
			C2208.4,516.5,2135,247,2103.8,105.1h-4.8c6.1,83.3,9,229.5,9,351.3v254.4h-140V0.5h228.5c55.4,185.6,117.4,418.4,138.8,524.2h1.2
			c17.4-93.3,95.4-342.2,154.7-524.2h220.3v710.2h-148.1V444.4z"/>
		<path class="st0" d="M3014,546.7l-55.4,164.1h-151L3048.8,0.6h192.9l251.6,710.2h-161.4l-58.4-164.1H3014z M3240.4,420.9
			c-50.4-149.9-82.6-245.6-99.7-309.5h-1c-17.5,70-53,181.4-93.4,309.5H3240.4z"/>
		<path class="st0" d="M1968.2,797.8H2262c150.9,0,253.4,84.9,253.4,219.9c0,154.3-116.8,225.1-256.9,225.1H2122V1508h-153.8V797.8z
			 M2121.9,1120.5h117.2c71.1,0,121.3-27.3,121.3-99.9c0-73.3-53-100.6-118.1-100.6h-120.4V1120.5z"/>
		<path class="st0" d="M2640.9,797.8h153.6v277h285.7v-277h153.6V1508h-153.6v-307.3h-285.8V1508h-153.6V797.8H2640.9z"/>
		<path class="st0" d="M4021.1,1508h-112.6c-5.9-21.8-9.8-46.2-11.7-70c-39.4,53.1-108.7,81.9-207.4,81.9
			c-206.2,0-321.3-155.8-321.3-358.1c0-213.5,124.2-374.3,348.1-374.3c182.8,0,290.3,103.1,307.5,224.3h-153.6
			c-14.6-47.6-52.1-103.8-156-103.8c-145.8,0-187.4,122-187.4,247.2c0,122.2,47.6,242.6,188.4,242.6c131.3,0,155.5-91.1,155.5-154.7
			v-6.4h-155.7v-126.1h306.3L4021.1,1508L4021.1,1508z"/>
	</g>
</g>
<g id="Capa_5">
	<polygon class="st0" points="1151.2,642.2 946.8,760.2 243.2,1166.4 243.2,971.2 243.2,735.2 243.2,354 573.3,544.6 777.7,426.6 
		243.2,118 38.8,0 38.8,236 38.8,853.2 38.8,1089.2 38.8,1284.4 38.8,1520.4 243.2,1402.4 1151.2,878.2 1355.6,760.2 	"/>
	<polygon class="st0" points="574.3,878.2 778.7,760.2 1482.2,354 1482.2,549.2 1482.2,785.2 1482.2,1166.4 1152.1,975.8 
		947.7,1093.8 1482.2,1402.4 1686.6,1520.4 1686.6,1284.4 1686.6,667.2 1686.6,431.2 1686.6,236 1686.6,0 1482.2,118 574.3,642.2 
		369.9,760.2 	"/>
</g>
</svg>
