<svg xmlns="http://www.w3.org/2000/svg" viewBox="0 0 1255 194"><defs><style>.cls-1{fill:#f6f6f6;}.cls-2,.cls-4,.cls-6{fill:#ddd;}.cls-2,.cls-3{opacity:0.84;}.cls-5{opacity:0.72;}.cls-6{opacity:0.51;}</style></defs><g id="Capa_2" data-name="Capa 2"><g id="Capa_1-2" data-name="Capa 1"><rect class="cls-1" width="1255" height="194" rx="15.97"/><circle class="cls-2" cx="36" cy="113" r="21"/><circle class="cls-2" cx="83" cy="113" r="21"/><circle class="cls-2" cx="130" cy="113" r="21"/><circle class="cls-2" cx="177" cy="113" r="21"/><circle class="cls-2" cx="224" cy="113" r="21"/><circle class="cls-2" cx="271" cy="113" r="21"/><circle class="cls-2" cx="318" cy="113" r="21"/><circle class="cls-2" cx="365" cy="113" r="21"/><circle class="cls-2" cx="412" cy="113" r="21"/><circle class="cls-2" cx="459" cy="113" r="21"/><circle class="cls-2" cx="506" cy="113" r="21"/><circle class="cls-2" cx="553" cy="113" r="21"/><circle class="cls-2" cx="600" cy="113" r="21"/><circle class="cls-2" cx="647" cy="113" r="21"/><circle class="cls-2" cx="694" cy="113" r="21"/><circle class="cls-2" cx="741" cy="113" r="21"/><circle class="cls-2" cx="788" cy="113" r="21"/><circle class="cls-2" cx="835" cy="113" r="21"/><circle class="cls-2" cx="882" cy="113" r="21"/><circle class="cls-2" cx="929" cy="113" r="21"/><circle class="cls-2" cx="976" cy="113" r="21"/><circle class="cls-2" cx="1023" cy="113" r="21"/><circle class="cls-2" cx="1070" cy="113" r="21"/><circle class="cls-2" cx="1117" cy="113" r="21"/><circle class="cls-2" cx="1164" cy="113" r="21"/><circle class="cls-2" cx="1211" cy="113" r="21"/><circle class="cls-2" cx="36" cy="160" r="21"/><circle class="cls-2" cx="83" cy="160" r="21"/><circle class="cls-2" cx="130" cy="160" r="21"/><circle class="cls-2" cx="177" cy="160" r="21"/><circle class="cls-2" cx="224" cy="160" r="21"/><circle class="cls-2" cx="271" cy="160" r="21"/><circle class="cls-2" cx="318" cy="160" r="21"/><circle class="cls-2" cx="365" cy="160" r="21"/><circle class="cls-2" cx="412" cy="160" r="21"/><circle class="cls-2" cx="459" cy="160" r="21"/><circle class="cls-2" cx="506" cy="160" r="21"/><circle class="cls-2" cx="553" cy="160" r="21"/><circle class="cls-2" cx="600" cy="160" r="21"/><circle class="cls-2" cx="647" cy="160" r="21"/><circle class="cls-2" cx="694" cy="160" r="21"/><circle class="cls-2" cx="741" cy="160" r="21"/><circle class="cls-2" cx="788" cy="160" r="21"/><circle class="cls-2" cx="835" cy="160" r="21"/><circle class="cls-2" cx="882" cy="160" r="21"/><circle class="cls-2" cx="929" cy="160" r="21"/><circle class="cls-2" cx="976" cy="160" r="21"/><circle class="cls-2" cx="1023" cy="160" r="21"/><circle class="cls-2" cx="1070" cy="160" r="21"/><circle class="cls-2" cx="1117" cy="160" r="21"/><circle class="cls-2" cx="1164" cy="160" r="21"/><circle class="cls-2" cx="1211" cy="160" r="21"/><g class="cls-3"><path class="cls-4" d="M543.52,54.21,549,25.09h6.36l6,13.57a70.67,70.67,0,0,1,3,9.25l.11,0a55,55,0,0,1,1.17-9.24l2.56-13.54h5l-5.52,29.12h-5.58l-6.07-14.13a79,79,0,0,1-3.22-9.35l-.15,0c-.31,2.72-.89,6.05-1.69,10.35l-2.47,13.09Z"/><path class="cls-4" d="M597.1,41.88c0,7.51-5.6,12.84-13,12.84-5.53,0-9.52-3.6-9.52-9.15a12.58,12.58,0,0,1,12.93-12.91C593.4,32.66,597.1,36.65,597.1,41.88ZM580,45.48c0,3.21,2,5.2,4.79,5.2,4,0,6.79-4.29,6.79-8.62,0-2.32-1.18-5.36-4.72-5.36C582.5,36.7,580,41.49,580,45.48Z"/><path class="cls-4" d="M613.67,25.63a33.35,33.35,0,0,1,7.59-.76c3,0,5.9.57,7.89,2a6.83,6.83,0,0,1,3,6.07,9.59,9.59,0,0,1-3.85,7.78c-2.45,1.89-6,2.75-9.74,2.75a23.62,23.62,0,0,1-3.1-.23l-2.09,10.94h-5.15Zm2.59,13.31a13.42,13.42,0,0,0,3.07.3c4.3,0,7.57-2.21,7.57-5.85,0-3.38-2.65-4.35-5.55-4.35a14.16,14.16,0,0,0-3.24.29Z"/><path class="cls-4" d="M632.75,54.21l5.91-30.93h5.25L638,54.21Z"/><path class="cls-4" d="M659.22,54.21c0-1.28.19-3.14.41-5.07h-.09c-2.16,4.14-5.23,5.58-8.26,5.58-4.07,0-6.87-3.13-6.87-7.49,0-7.46,5.59-14.57,15.79-14.57a26,26,0,0,1,6.92,1L665,44.34a50.1,50.1,0,0,0-.86,9.87Zm2-17.23a9,9,0,0,0-2.35-.26c-4.84,0-8.89,4.54-8.89,9.65,0,2.19,1,4.14,3.43,4.14s5.78-2.84,6.85-8.63Z"/><path class="cls-4" d="M669.62,54.21l2.76-14.67c.49-2.45.8-4.56,1.06-6.36h4.71l-.52,4h.08a9.76,9.76,0,0,1,8.18-4.55c3.08,0,5.86,1.72,5.86,6.24a24.35,24.35,0,0,1-.34,3.37l-2.28,11.94h-5.25L686,42.83a15.81,15.81,0,0,0,.25-2.5c0-2-.7-3.42-3-3.42-2.5,0-5.75,2.92-6.7,8.11l-1.71,9.19Z"/><path class="cls-4" d="M695.78,49.28a13.58,13.58,0,0,0,5.62,1.55c2.13,0,3.39-1.14,3.39-2.49s-.7-2.06-3-3.11c-2.68-1.22-4.65-3-4.65-5.6,0-4.16,3.78-7,9-7a11.39,11.39,0,0,1,5.37,1.15l-1.35,3.77a10.07,10.07,0,0,0-4.43-1c-1.89,0-3.23,1-3.23,2.33,0,1.13,1,1.94,3,2.9,2.4,1.1,4.79,2.75,4.79,5.69,0,4.66-4.12,7.25-9.4,7.25a11.65,11.65,0,0,1-6.45-1.7Z"/></g><g class="cls-5"><rect class="cls-4" x="1020" y="32" width="31" height="31" rx="5.14"/><circle class="cls-4" cx="1072" cy="47.5" r="16"/><circle class="cls-4" cx="1109" cy="47.5" r="16"/></g><rect class="cls-6" x="12" y="39" width="82" height="19"/><rect class="cls-6" x="12" y="14" width="45" height="21"/><rect class="cls-6" x="12" y="63" width="111" height="19"/><rect class="cls-6" x="1137" y="43" width="95" height="9"/></g></g></svg>