<svg xmlns="http://www.w3.org/2000/svg" viewBox="0 0 109 132.5"><defs><style>.cls-1{fill:#e31b21;}.cls-2{fill:#fef2f2;}</style></defs><g id="Capa_2" data-name="Capa 2"><g id="Capa_2-2" data-name="Capa 2"><path class="cls-1" d="M108.93,55.34a20.59,20.59,0,0,0-4.1-11,19.52,19.52,0,0,0-1.88-2.2L66.86,6.05c-.43-.44-.89-.84-1.36-1.24A20.65,20.65,0,0,0,54.5.13,20.88,20.88,0,0,0,52.26,0H20.66A20.66,20.66,0,0,0,0,20.66v91.18A20.66,20.66,0,0,0,20.66,132.5H88.34A20.66,20.66,0,0,0,109,111.84V56.74C109,56.27,109,55.81,108.93,55.34Z"/><path class="cls-2" d="M89.6,44.34H75.16a9.66,9.66,0,0,1-9.66-9.65V20.24Z"/><path class="cls-2" d="M98,111.84a9.67,9.67,0,0,1-9.66,9.66H20.66A9.67,9.67,0,0,1,11,111.84V20.66A9.67,9.67,0,0,1,20.66,11h31.6a9.88,9.88,0,0,1,2.24.27V34.69A20.66,20.66,0,0,0,75.16,55.34H97.89a10.86,10.86,0,0,1,.11,1.4Z"/><path class="cls-1" d="M76,100a19.64,19.64,0,0,1-10-3C64.57,96,63.25,95,61.9,94a.77.77,0,0,0-.67-.17,104,104,0,0,0-13.1,3.48,1.24,1.24,0,0,0-.6.51,60.48,60.48,0,0,1-6.3,9,19.75,19.75,0,0,1-5.16,4.43,7.15,7.15,0,0,1-5.94.8,4.47,4.47,0,0,1-3.32-3.61,4.72,4.72,0,0,1,.79-3.36,13.42,13.42,0,0,1,3.77-3.7,44.59,44.59,0,0,1,9.09-4.91,4.33,4.33,0,0,0,2.36-2.21A120.58,120.58,0,0,0,49.67,78a1.06,1.06,0,0,0,0-.7,34.86,34.86,0,0,1-2.52-8.53,15.07,15.07,0,0,1,.22-6.68,4.55,4.55,0,0,1,3.79-3.48,5,5,0,0,1,4.75,1.8,8.45,8.45,0,0,1,1.76,4.25,19.78,19.78,0,0,1-.13,5.85,49.62,49.62,0,0,1-2.13,9.23.73.73,0,0,0,0,.56,47.29,47.29,0,0,0,7.08,9.4,1.05,1.05,0,0,0,1,.33c2.18-.2,4.36-.45,6.55-.54a20.24,20.24,0,0,1,8.27,1.09,8.56,8.56,0,0,1,2.26,1.28,4.4,4.4,0,0,1-1.16,7.6A9.69,9.69,0,0,1,76,100Zm-11.08-7.5c.06.08.07.11.09.12a21.51,21.51,0,0,0,8,4A4,4,0,0,0,76,96.35a2,2,0,0,0,.17-3.42,3.88,3.88,0,0,0-1.55-.63A29.43,29.43,0,0,0,71.28,92,35.13,35.13,0,0,0,64.91,92.46ZM40.62,99.64l-.06-.06a2.54,2.54,0,0,0-.38.16c-1.55.79-3.11,1.56-4.63,2.4a20.15,20.15,0,0,0-4.19,3,5.29,5.29,0,0,0-1.58,2.31,1.4,1.4,0,0,0,1.67,1.81,5,5,0,0,0,2.26-1.16,26.88,26.88,0,0,0,5.14-5.82C39.47,101.44,40,100.53,40.62,99.64ZM51.46,74.32l.12,0a1.11,1.11,0,0,0,.07-.16,34.5,34.5,0,0,0,1.76-8.76,6.48,6.48,0,0,0-.24-2.8,1.48,1.48,0,0,0-1.4-1.16,1.52,1.52,0,0,0-1.45,1.12,11.92,11.92,0,0,0-.44,2.12,15.94,15.94,0,0,0,.38,5.15C50.6,71.33,51.05,72.82,51.46,74.32Zm7.27,16.42-4.93-6.3-3.48,8.5Z"/></g></g></svg>